<svg id="Lag_1" data-name="Lag 1" xmlns="http://www.w3.org/2000/svg" viewBox="0 0 1131 249.2"><defs><style>.cls-1{fill:#280111;}.cls-2{fill:#fff;}.cls-3{fill:#a31119;}</style></defs><polygon class="cls-1" points="329.32 208.77 329.32 209 329 209 329 218 324 218 324 228 313 228 313 237 302 237 302 247 97 247 97 237 85 237 85 228 76 228 76 218 70 218 70 210 69.6 210 69.6 208.77 75.3 208.77 75.3 199.13 85.43 199.13 85.43 189.97 96.84 189.97 96.84 180.32 302.08 180.32 302.08 189.97 314.12 189.97 314.12 199.13 324.89 199.13 324.89 208.77 329.32 208.77"/><rect class="cls-1" x="700" y="220.27" width="0.03" height="9.65"/><polygon class="cls-1" points="704.46 210.63 704.46 211 704 211 704 220 700 220 700 229.92 688.62 229.92 688.62 230 688 230 688 239 677 239 677 249 472 249 472 238 460 238 460 229 451 229 451 220 445 220 445 210.63 450.44 210.63 450.44 200.99 460.57 200.99 460.57 191.83 471.97 191.83 471.97 182.18 677.22 182.18 677.22 191.83 689.26 191.83 689.26 200.99 700.03 200.99 700.03 210.63 704.46 210.63"/><rect class="cls-1" x="1063" y="220.27" width="0.03" height="8.73"/><polygon class="cls-1" points="1067.46 210.63 1067.46 211 1067 211 1067 220 1063 220 1063 229 1051 229 1051 239 1040 239 1040 249 835 249 835 239 823 239 823 229 814 229 814 220 808 220 808 211 807.74 211 807.74 210.63 813.44 210.63 813.44 200.99 823.57 200.99 823.57 191.83 834.97 191.83 834.97 182.18 1040.22 182.18 1040.22 191.83 1052.26 191.83 1052.26 200.99 1063.03 200.99 1063.03 210.63 1067.46 210.63"/><rect class="cls-1" x="834.97" y="249" width="0.03" height="0.2"/><rect class="cls-2" x="302" y="179.93" width="0.48" height="0.07"/><rect class="cls-2" x="835.97" y="40" width="0.03" height="0.2"/><rect class="cls-2" x="302" y="179.93" width="0.48" height="0.07"/><rect class="cls-2" x="701" y="11.27" width="0.03" height="9.65"/><rect class="cls-2" x="1064" y="11.27" width="0.03" height="8.73"/><polygon class="cls-3" points="1131 2 1131 220 1067 220 1067 211 1062 211 1062 201 1052 201 1052 192 1040 192 1040 182 836 182 836 192 824 192 824 201 814 201 814 211 808 211 808 220 704 220 704 211 699 211 699 201 689 201 689 192 677 192 677 182 473 182 473 192 461 192 461 201 451 201 451 211 445 211 445 218 329 218 329 209 324 209 324 199 314 199 314 190 302 190 302 180 302.48 180 302.48 179.93 302 179.93 302 180 98 180 98 190 86 190 86 199 76 199 76 209 70 209 70 218 0 218 0 1 71 1 71 9 77 9 77 19 86 19 86 28 98 28 98 38 303 38 303 28 314 28 314 19 325 19 325 9 330 9 330 0 446 0 446 11 452 11 452 20 461 20 461 29 473 29 473 40 678 40 678 30 689 30 689 21 689.62 21 689.62 20.92 701.03 20.92 701.03 11.27 701 11.27 701 11 705 11 705 2 809 2 809 11 815 11 815 20 824 20 824 30 836 30 836 40 835.97 40 835.97 40.2 836 40.2 836 40 1041 40 1041 30 1052 30 1052 20 1064.03 20 1064.03 11.27 1064 11.27 1064 11 1068 11 1068 2 1131 2"/><rect class="cls-2" x="835.97" y="40" width="0.03" height="0.2"/></svg>