<svg id="Lag_1" data-name="Lag 1" xmlns="http://www.w3.org/2000/svg" viewBox="0 0 1131 248.68"><defs><style>.cls-1{fill:#280111;}.cls-2{fill:#fff;}.cls-3{fill:#a31119;}</style></defs><polygon class="cls-1" points="330.32 28.45 330.32 28.68 330 28.68 330 37.68 325 37.68 325 47.68 314 47.68 314 56.68 303 56.68 303 66.68 98 66.68 98 56.68 86 56.68 86 47.68 77 47.68 77 37.68 71 37.68 71 29.68 70.6 29.68 70.6 28.45 76.3 28.45 76.3 18.81 86.43 18.81 86.43 9.65 97.84 9.65 97.84 0 303.08 0 303.08 9.65 315.12 9.65 315.12 18.81 325.89 18.81 325.89 28.45 330.32 28.45"/><rect class="cls-1" x="701" y="39.95" width="0.03" height="9.65"/><polygon class="cls-1" points="705.46 30.31 705.46 30.68 705 30.68 705 39.68 701 39.68 701 49.6 689.62 49.6 689.62 49.68 689 49.68 689 58.68 678 58.68 678 68.68 473 68.68 473 57.68 461 57.68 461 48.68 452 48.68 452 39.68 446 39.68 446 30.31 451.44 30.31 451.44 20.67 461.57 20.67 461.57 11.51 472.97 11.51 472.97 1.86 678.22 1.86 678.22 11.51 690.26 11.51 690.26 20.67 701.03 20.67 701.03 30.31 705.46 30.31"/><rect class="cls-1" x="1064" y="39.95" width="0.03" height="8.73"/><polygon class="cls-1" points="1068.46 30.31 1068.46 30.68 1068 30.68 1068 39.68 1064 39.68 1064 48.68 1052 48.68 1052 58.68 1041 58.68 1041 68.68 836 68.68 836 58.68 824 58.68 824 48.68 815 48.68 815 39.68 809 39.68 809 30.68 808.74 30.68 808.74 30.31 814.44 30.31 814.44 20.67 824.57 20.67 824.57 11.51 835.97 11.51 835.97 1.86 1041.22 1.86 1041.22 11.51 1053.26 11.51 1053.26 20.67 1064.03 20.67 1064.03 30.31 1068.46 30.31"/><rect class="cls-1" x="835.97" y="68.68" width="0.03" height="0.2"/><rect class="cls-2" x="302" y="208.61" width="0.48" height="0.07"/><rect class="cls-2" x="835.97" y="68.68" width="0.03" height="0.2"/><rect class="cls-2" x="302" y="208.61" width="0.48" height="0.07"/><rect class="cls-2" x="701" y="39.95" width="0.03" height="9.65"/><rect class="cls-2" x="1064" y="39.95" width="0.03" height="8.73"/><polygon class="cls-3" points="1131 30.68 1131 248.68 1067 248.68 1067 239.68 1062 239.68 1062 229.68 1052 229.68 1052 220.68 1040 220.68 1040 210.68 836 210.68 836 220.68 824 220.68 824 229.68 814 229.68 814 239.68 808 239.68 808 248.68 704 248.68 704 239.68 699 239.68 699 229.68 689 229.68 689 220.68 677 220.68 677 210.68 473 210.68 473 220.68 461 220.68 461 229.68 451 229.68 451 239.68 445 239.68 445 246.68 329 246.68 329 237.68 324 237.68 324 227.68 314 227.68 314 218.68 302 218.68 302 208.68 302.48 208.68 302.48 208.61 302 208.61 302 208.68 98 208.68 98 218.68 86 218.68 86 227.68 76 227.68 76 237.68 70 237.68 70 246.68 0 246.68 0 29.68 71 29.68 71 37.68 77 37.68 77 47.68 86 47.68 86 56.68 98 56.68 98 66.68 303 66.68 303 56.68 314 56.68 314 47.68 325 47.68 325 37.68 330 37.68 330 28.68 446 28.68 446 39.68 452 39.68 452 48.68 461 48.68 461 57.68 473 57.68 473 68.68 678 68.68 678 58.68 689 58.68 689 49.68 689.62 49.68 689.62 49.6 701.03 49.6 701.03 39.95 701 39.95 701 39.68 705 39.68 705 30.68 809 30.68 809 39.68 815 39.68 815 48.68 824 48.68 824 58.68 836 58.68 836 68.68 835.97 68.68 835.97 68.88 836 68.88 836 68.68 1041 68.68 1041 58.68 1052 58.68 1052 48.68 1064.03 48.68 1064.03 39.95 1064 39.95 1064 39.68 1068 39.68 1068 30.68 1131 30.68"/><rect class="cls-2" x="835.97" y="68.68" width="0.03" height="0.2"/></svg>