<svg id="Lag_1" data-name="Lag 1" xmlns="http://www.w3.org/2000/svg" viewBox="0 0 1148 191.2"><defs><style>.cls-1{fill:#a31119;}.cls-2{fill:#60091a;}.cls-3{fill:#7a081a;}.cls-4{fill:#fff;}</style></defs><rect class="cls-1" x="311.78" y="19" width="11" height="0.31"/><polygon class="cls-1" points="1141 2 1141 31 1140.78 31 1140.78 63 9.78 63 9.78 0 79.77 0 79.77 0.02 85.78 0.02 85.78 9 95.78 9 95.78 19 107.78 19 107.78 29 311.78 29 311.78 19.31 322.78 19.31 322.78 9 334.78 9 334.78 0.02 339.5 0.02 339.5 0 460.78 0 460.78 10 470.78 10 470.78 21 482.78 21 482.78 31 686.78 31 686.78 21 697.78 21 697.78 11 709.78 11 709.78 2 823.78 2 823.78 11 833.78 11 833.78 21 845.78 21 845.78 30.81 1049.78 30.81 1049.78 21 1061.78 21 1061.78 21.17 1061.8 21.17 1061.8 11.52 1061.78 11.52 1061.78 11 1072.78 11 1072.78 2 1141 2"/><rect class="cls-2" x="942.22" y="397.2" width="30" height="1148" transform="translate(1545.2 -879.02) rotate(90)"/><rect class="cls-3" x="9.78" y="90.2" width="1131.22" height="101"/><rect class="cls-4" x="79.77" width="6.01" height="0.02"/><rect class="cls-4" x="334.78" width="4.72" height="0.02"/><rect class="cls-4" x="1061.78" y="11.52" width="0.02" height="9.65"/><rect class="cls-4" x="1061.78" y="21" width="0.02" height="0.17"/></svg>