<svg id="Lag_1" data-name="Lag 1" xmlns="http://www.w3.org/2000/svg" viewBox="0 0 1131.09 280.71"><defs><style>.cls-1{fill:#280111;}.cls-2{fill:#fff;}.cls-3{fill:#a31119;}</style></defs><rect class="cls-1" x="324.09" y="198.73" width="1" height="0.27"/><rect class="cls-1" x="75.78" y="198.73" width="0.31" height="0.27"/><rect class="cls-1" x="85.92" y="189.57" width="0.17" height="0.43"/><polygon class="cls-1" points="329.09 209 329.09 217.73 325 217.73 325 226.71 313 226.71 313 237.02 302 237.02 302 246.71 98 246.71 98 236.71 86 236.71 86 226.71 76 226.71 76 217.73 70.08 217.73 70.08 208.38 70.09 208.38 70.09 209 76.09 209 76.09 199 86.09 199 86.09 190 98.09 190 98.09 180 97.32 180 97.32 179.93 302.57 179.93 302.57 180 302.09 180 302.09 190 314.09 190 314.09 199 324.09 199 324.09 209 329.09 209"/><rect class="cls-1" x="329.09" y="208.38" width="0.72" height="0.62"/><rect class="cls-1" x="450.92" y="200.59" width="0.17" height="0.41"/><rect class="cls-1" x="461.06" y="191.43" width="0.03" height="0.57"/><rect class="cls-1" x="472.46" y="181.79" width="0.63" height="0.21"/><polygon class="cls-1" points="704.95 219.71 704.95 219.88 700 219.88 700 228.71 688 228.71 688 238.71 677 238.71 677 248.71 473 248.71 473 238.71 461 238.71 461 227.71 451 227.71 451 217.71 445.22 217.71 445.22 211 451.09 211 451.09 201 461.09 201 461.09 192 473.09 192 473.09 182 677.09 182 677.09 192 689.09 192 689.09 201 699.09 201 699.09 211 704.09 211 704.09 219.71 704.95 219.71"/><rect class="cls-1" x="813.92" y="200.59" width="0.17" height="0.41"/><rect class="cls-1" x="824.06" y="191.43" width="0.03" height="0.57"/><rect class="cls-1" x="1040.09" y="181.79" width="0.62" height="0.21"/><polygon class="cls-1" points="1067.95 219.71 1067.95 219.88 1063 219.88 1063 228.71 1052 228.71 1052 229.23 1052.02 229.23 1052.02 229.52 1052.11 229.52 1052.11 239.17 1040 239.17 1040 248.52 836 248.52 836 238.71 824 238.71 824 228.71 814 228.71 814 219.88 808.22 219.88 808.22 211 814.09 211 814.09 201 824.09 201 824.09 192 836.09 192 836.09 182 1040.09 182 1040.09 192 1052.09 192 1052.09 201 1062.09 201 1062.09 211 1067.09 211 1067.09 219.71 1067.95 219.71"/><rect class="cls-2" y="217.71" width="0.31" height="63"/><rect class="cls-2" x="700" y="219.71" width="4.95" height="0.17"/><rect class="cls-2" x="808.22" y="219.71" width="5.78" height="0.17"/><polygon class="cls-2" points="1052.02 229.52 1052.11 229.52 1052.11 239.17 1040 239.17 1040 238.71 1052 238.71 1052 238.88 1052.02 238.88 1052.02 229.52"/><rect class="cls-2" x="1063" y="219.71" width="4.95" height="0.17"/><rect class="cls-2" x="0.09" y="38" width="0.22" height="142"/><rect class="cls-2" x="97.32" y="179.93" width="205.25" height="0.07"/><polygon class="cls-3" points="1131.09 2 1131.09 219.71 1067.09 219.71 1067.09 211 1062.09 211 1062.09 201 1052.09 201 1052.09 192 1040.09 192 1040.09 182 1040.71 182 1040.71 181.79 1040.09 181.79 1040.09 182 836.09 182 836.09 192 824.09 192 824.09 191.43 824.06 191.43 824.06 192 824.09 192 824.09 201 814.09 201 814.09 200.59 813.92 200.59 813.92 201 814.09 201 814.09 211 808.09 211 808.09 219.71 704.09 219.71 704.09 211 699.09 211 699.09 201 689.09 201 689.09 192 677.09 192 677.09 182 473.09 182 473.09 181.79 472.46 181.79 472.46 182 473.09 182 473.09 192 461.09 192 461.09 191.43 461.06 191.43 461.06 192 461.09 192 461.09 201 451.09 201 451.09 200.59 450.92 200.59 450.92 201 451.09 201 451.09 211 445.09 211 445.09 217.71 329.72 217.71 329.72 217.73 329.09 217.73 329.09 209 329.81 209 329.81 208.38 329.09 208.38 329.09 209 324.09 209 324.09 199 325.09 199 325.09 198.73 324.09 198.73 324.09 199 314.09 199 314.09 190 302.09 190 302.09 180 302.57 180 302.57 179.93 97.32 179.93 97.32 180 98.09 180 98.09 190 86.09 190 86.09 189.57 85.92 189.57 85.92 190 86.09 190 86.09 199 76.09 199 76.09 198.73 75.78 198.73 75.78 199 76.09 199 76.09 209 70.09 209 70.09 208.38 70.08 208.38 70.08 217.73 69.99 217.73 69.99 217.71 0.31 217.71 0.31 1 70.69 1 70.69 9.42 76.39 9.42 76.39 19.06 85.89 19.06 85.89 28.7 97.93 28.7 97.93 38 98.09 38 98.09 38.35 303.17 38.35 303.17 28.7 314.58 28.7 314.58 19.06 325.98 19.06 325.98 9.42 330.41 9.42 330.41 0 446.09 0 446.09 1.63 445.83 1.63 445.83 11.27 451.53 11.27 451.53 20.92 461.03 20.92 461.03 30.56 473.06 30.56 473.06 40.2 678.31 40.2 678.31 30.56 689.71 30.56 689.71 21 701.09 21 701.09 20.92 701.12 20.92 701.12 11.27 705.55 11.27 705.55 2 808.83 2 808.83 11.27 815.09 11.27 815.09 20 824.09 20 824.09 20.92 824.03 20.92 824.03 30.56 824.09 30.56 824.09 30 836.09 30 836.09 30.56 836.06 30.56 836.06 40.2 836.09 40.2 836.09 40 1041.09 40 1041.09 30 1052.09 30 1052.09 20 1064.12 20 1064.12 11.27 1064.09 11.27 1064.09 11 1068.09 11 1068.09 2 1131.09 2"/><rect class="cls-2" x="98.09" y="38" width="205.08" height="0.35"/><rect class="cls-2" x="473.06" y="38" width="0.03" height="2.2"/><rect class="cls-2" x="473.06" y="40" width="205.25" height="0.2"/><rect class="cls-2" x="836.06" y="40" width="0.03" height="0.2"/><rect class="cls-2" x="472.46" y="181.79" width="0.63" height="0.21"/><rect class="cls-2" x="1040.09" y="181.79" width="0.62" height="0.21"/><polygon class="cls-2" points="70.09 208.38 70.09 218 0.09 218 0.09 179 0.31 179 0.31 217.71 69.99 217.71 69.99 217.73 70.08 217.73 70.08 208.38 70.09 208.38"/><rect class="cls-2" x="70.08" y="208.38" width="0.01" height="0.62"/><rect class="cls-2" x="75.78" y="198.73" width="0.31" height="0.27"/><rect class="cls-2" x="75.78" y="198.73" width="0.31" height="0.27"/><rect class="cls-2" x="85.92" y="189.57" width="0.17" height="0.43"/><rect class="cls-2" x="85.92" y="189.57" width="0.17" height="0.43"/><rect class="cls-2" x="97.32" y="179.93" width="0.77" height="0.07"/><rect class="cls-2" x="375.09" y="217.71" width="70" height="0.29"/><rect class="cls-2" x="450.92" y="200.59" width="0.17" height="0.41"/><rect class="cls-2" x="450.92" y="200.59" width="0.17" height="0.41"/><rect class="cls-2" x="461.06" y="191.43" width="0.03" height="0.57"/><rect class="cls-2" x="461.06" y="191.43" width="0.03" height="0.57"/><rect class="cls-2" x="472.46" y="181.79" width="0.63" height="0.21"/><rect class="cls-2" x="738.09" y="219.71" width="70" height="0.29"/><rect class="cls-2" x="813.92" y="200.59" width="0.17" height="0.41"/><rect class="cls-2" x="813.92" y="200.59" width="0.17" height="0.41"/><rect class="cls-2" x="824.06" y="191.43" width="0.03" height="0.57"/><rect class="cls-2" x="824.06" y="191.43" width="0.03" height="0.57"/><rect class="cls-2" x="329.09" y="208.38" width="0.72" height="0.62"/><polygon class="cls-2" points="400.09 217.71 400.09 218 329.09 218 329.09 217.73 329.72 217.73 329.72 217.71 400.09 217.71"/><rect class="cls-2" x="324.09" y="198.73" width="1" height="0.27"/><rect class="cls-2" x="329.09" y="208.38" width="0.72" height="0.62"/><rect class="cls-2" x="324.09" y="198.73" width="1" height="0.27"/><rect class="cls-2" x="302.09" y="179.93" width="0.48" height="0.07"/><rect class="cls-2" x="704.09" y="219.71" width="71" height="0.29"/><rect class="cls-2" x="1067.09" y="219.71" width="64" height="0.29"/><rect class="cls-2" x="1040.09" y="181.79" width="0.62" height="0.21"/><rect class="cls-2" x="705.09" y="2" width="0.46" height="9.27"/><rect class="cls-2" x="808.83" y="2" width="0.26" height="9.27"/><polygon class="cls-2" points="705.55 11 705.55 11.27 701.12 11.27 701.12 20.92 701.09 20.92 701.09 11 705.55 11"/><rect class="cls-2" x="689.09" y="21" width="0.62" height="9.56"/><polygon class="cls-2" points="689.71 30 689.71 30.56 678.31 30.56 678.31 40.2 678.09 40.2 678.09 30 689.71 30"/><rect class="cls-2" x="1064.09" y="11.27" width="0.03" height="8.73"/><rect class="cls-2" x="330.09" width="0.32" height="9.42"/><rect class="cls-2" x="445.83" y="1.63" width="0.26" height="9.64"/><polygon class="cls-2" points="330.41 9 330.41 9.42 325.98 9.42 325.98 19.06 325.09 19.06 325.09 9 330.41 9"/><polygon class="cls-2" points="325.98 19 325.98 19.06 314.58 19.06 314.58 28.7 314.09 28.7 314.09 19 325.98 19"/><polygon class="cls-2" points="314.58 28 314.58 28.7 303.17 28.7 303.17 38.35 303.09 38.35 303.09 28 314.58 28"/><rect class="cls-2" x="70.69" y="1" width="0.4" height="8.42"/><rect class="cls-2" x="0.09" y="1" width="0.22" height="39"/><polygon class="cls-2" points="77.09 9 77.09 19.06 76.39 19.06 76.39 9.42 70.69 9.42 70.69 9 77.09 9"/><polygon class="cls-2" points="86.09 19 86.09 28.7 85.89 28.7 85.89 19.06 76.39 19.06 76.39 19 86.09 19"/><polygon class="cls-2" points="98.09 28 98.09 38 97.93 38 97.93 28.7 85.89 28.7 85.89 28 98.09 28"/><polygon class="cls-2" points="452.09 11 452.09 20.92 451.53 20.92 451.53 11.27 445.83 11.27 445.83 11 452.09 11"/><polygon class="cls-2" points="461.09 20 461.09 30.56 461.03 30.56 461.03 20.92 451.53 20.92 451.53 20 461.09 20"/><polygon class="cls-2" points="473.09 29 473.09 40 473.06 40 473.06 30.56 461.03 30.56 461.03 29 473.09 29"/><rect class="cls-2" x="808.83" y="11" width="6.26" height="0.27"/><rect class="cls-2" x="824.03" y="20.92" width="0.06" height="9.64"/><rect class="cls-2" x="824.03" y="30" width="0.06" height="0.56"/><rect class="cls-2" x="836.06" y="30.56" width="0.03" height="9.64"/></svg>