<svg id="Lag_1" data-name="Lag 1" xmlns="http://www.w3.org/2000/svg" viewBox="0 0 1148 191.2"><defs><style>.cls-1{fill:#a31119;}.cls-2{fill:#60091a;}.cls-3{fill:#7a081a;}.cls-4{fill:#fff;}</style></defs><rect class="cls-1" x="311.78" y="19" width="11" height="0.31"/><polygon class="cls-1" points="1141 3 1141 32 1140.78 32 1140.78 64 9.78 64 9.78 1 79.77 1 79.77 1.02 85.78 1.02 85.78 10 95.78 10 95.78 20 107.78 20 107.78 30 311.78 30 311.78 20.31 322.78 20.31 322.78 10 334.78 10 334.78 1.02 339.5 1.02 339.5 1 460.78 1 460.78 11 470.78 11 470.78 22 482.78 22 482.78 32 686.78 32 686.78 22 697.78 22 697.78 12 709.78 12 709.78 3 823.78 3 823.78 12 833.78 12 833.78 22 845.78 22 845.78 31.81 1049.78 31.81 1049.78 22 1061.78 22 1061.78 22.17 1061.8 22.17 1061.8 12.52 1061.78 12.52 1061.78 12 1072.78 12 1072.78 3 1141 3"/><rect class="cls-2" x="942.22" y="397.2" width="30" height="1148" transform="translate(1545.2 -879.02) rotate(90)"/><rect class="cls-3" x="9.78" y="90.2" width="1131.22" height="101"/><rect class="cls-4" x="79.77" width="6.01" height="0.02"/><rect class="cls-4" x="334.78" width="4.72" height="0.02"/><rect class="cls-4" x="1061.78" y="11.52" width="0.02" height="9.65"/><rect class="cls-4" x="1061.78" y="21" width="0.02" height="0.17"/></svg>