<svg id="Lag_1" data-name="Lag 1" xmlns="http://www.w3.org/2000/svg" viewBox="0 0 1131.22 243.1"><defs><style>.cls-1{fill:#a31119;}.cls-2{fill:#280111;}.cls-3{fill:#fff;}</style></defs><rect class="cls-1" x="302.09" y="231.29" width="11" height="0.31"/><rect class="cls-2" x="70.08" y="212.29" width="6.01" height="0.02"/><rect class="cls-2" x="325.09" y="212.29" width="4.72" height="0.02"/><polygon class="cls-2" points="329.09 203.29 329.09 212.29 325.09 212.29 325.09 221.29 313.09 221.29 313.09 231.29 302.09 231.29 302.09 241.24 98.09 241.24 98.09 231.29 86.09 231.29 86.09 221.29 76.09 221.29 76.09 212.29 71.09 212.29 71.09 203.29 76.09 203.29 76.09 193.29 86.09 193.29 86.09 184.29 98.09 184.29 98.09 174.29 302.09 174.29 302.09 184.29 314.09 184.29 314.09 193.29 325.09 193.29 325.09 203.29 329.09 203.29"/><rect class="cls-2" x="97.32" y="174.22" width="205.25" height="0.07"/><rect class="cls-2" x="461.06" y="194.88" width="0.03" height="0.41"/><rect class="cls-2" x="461.06" y="185.72" width="0.03" height="9.57"/><polygon class="cls-2" points="704.95 205.29 704.95 214.17 700.51 214.17 700.51 214.29 700.09 214.29 700.09 223.29 688.09 223.29 688.09 233.29 677.09 233.29 677.09 243.1 473.09 243.1 473.09 233.29 461.09 233.29 461.09 222.29 451.09 222.29 451.09 212.29 445.22 212.29 445.22 205.29 451.09 205.29 451.09 195.29 461.09 195.29 461.09 186.29 473.09 186.29 473.09 176.29 677.09 176.29 677.09 186.29 689.09 186.29 689.09 195.29 700.09 195.29 700.09 205.29 704.95 205.29"/><rect class="cls-2" x="824.06" y="194.88" width="0.03" height="0.41"/><rect class="cls-2" x="824.06" y="185.72" width="0.03" height="9.57"/><rect class="cls-2" x="1052.09" y="223.81" width="0.02" height="9.65"/><polygon class="cls-2" points="1067.09 205.29 1067.09 214.17 1063.51 214.17 1063.51 214.29 1063.09 214.29 1063.09 223.29 1052.09 223.29 1052.09 233.29 1040.09 233.29 1040.09 243.1 836.09 243.1 836.09 233.29 824.09 233.29 824.09 223.29 814.09 223.29 814.09 214.29 813.92 214.29 813.92 214.17 808.22 214.17 808.22 205.29 814.09 205.29 814.09 195.29 824.09 195.29 824.09 186.29 836.09 186.29 836.09 176.29 1040.09 176.29 1040.09 186.29 1052.09 186.29 1052.09 195.29 1063.09 195.29 1063.09 205.29 1067.09 205.29"/><rect class="cls-3" x="70.08" y="212.29" width="6.01" height="0.02"/><rect class="cls-3" x="325.09" y="212.29" width="4.72" height="0.02"/><rect class="cls-3" x="1052.09" y="223.81" width="0.02" height="9.65"/><rect class="cls-3" x="1052.09" y="233.29" width="0.02" height="0.17"/><rect class="cls-3" width="0.31" height="63"/><rect class="cls-3" x="700" y="2" width="4.95" height="0.17"/><rect class="cls-3" x="808.22" y="2" width="5.78" height="0.17"/><polygon class="cls-1" points="1131 31 1131 60.29 1131.09 60.29 1131.09 214.29 1067.09 214.29 1067.09 205.29 1063.09 205.29 1063.09 195.29 1052.09 195.29 1052.09 186.29 1040.09 186.29 1040.09 176.29 836.09 176.29 836.09 186.29 824.09 186.29 824.09 185.72 824.06 185.72 824.06 195.29 814.09 195.29 814.09 205.29 808.09 205.29 808.09 214.29 705.09 214.29 705.09 205.29 700.09 205.29 700.09 195.29 689.09 195.29 689.09 186.29 677.09 186.29 677.09 176.29 473.09 176.29 473.09 186.29 461.09 186.29 461.09 185.72 461.06 185.72 461.06 195.29 451.09 195.29 451.09 205.29 445.09 205.29 445.09 212.29 329.09 212.29 329.09 203.29 325.09 203.29 325.09 193.29 314.09 193.29 314.09 184.29 302.09 184.29 302.09 174.29 302.57 174.29 302.57 174.22 97.32 174.22 97.32 174.29 98.09 174.29 98.09 184.29 86.09 184.29 86.09 193.29 76.09 193.29 76.09 203.29 71.09 203.29 71.09 212.29 0.31 212.29 0.31 0 69.99 0 69.99 0.02 76 0.02 76 9 86 9 86 19 98 19 98 29 302 29 302 19.31 313 19.31 313 9 325 9 325 0.02 329.72 0.02 329.72 0 451 0 451 10 461 10 461 21 473 21 473 31 677 31 677 21 688 21 688 11 700 11 700 2.17 704.95 2.17 704.95 2 808.22 2 808.22 2.17 814 2.17 814 11 824 11 824 21 836 21 836 30.81 1040 30.81 1040 21 1052 21 1052 21.17 1052.02 21.17 1052.02 11.52 1052 11.52 1052 11 1063 11 1063 2.17 1067.95 2.17 1067.95 2 1131.22 2 1131.22 31 1131 31"/><rect class="cls-3" x="1063" y="2" width="4.95" height="0.17"/><rect class="cls-3" x="0.09" y="60.29" width="0.22" height="114"/><rect class="cls-3" x="97.32" y="174.22" width="205.25" height="0.07"/><rect class="cls-3" x="0.09" y="172.29" width="0.22" height="40"/><rect class="cls-3" x="461.06" y="185.72" width="0.03" height="0.57"/><rect class="cls-3" x="461.06" y="185.72" width="0.03" height="9.57"/><rect class="cls-3" x="824.06" y="185.72" width="0.03" height="0.57"/><rect class="cls-3" x="824.06" y="185.72" width="0.03" height="9.57"/></svg>