<svg id="Lag_1" data-name="Lag 1" xmlns="http://www.w3.org/2000/svg" viewBox="0 0 274.5 299.92"><defs><style>.cls-1{fill:#1a009b;}.cls-2{fill:#2991f8;}.cls-3{fill:#154dde;}</style></defs><rect class="cls-1" x="124.17" width="25.28" height="25"/><rect class="cls-1" x="149.28" y="24.94" width="25.28" height="25.01"/><rect class="cls-1" x="174.24" y="49.93" width="25.28" height="25.01"/><rect class="cls-1" x="199.33" y="74.5" width="25.28" height="25.01"/><rect class="cls-1" x="224.14" y="99.27" width="25.28" height="25"/><rect class="cls-1" x="249.22" y="124.06" width="25.28" height="25.01"/><rect class="cls-1" x="131.06" y="50.15" width="25.01" height="25.28" transform="translate(174.87 -106.3) rotate(90)"/><rect class="cls-1" x="74.91" y="49.45" width="25.28" height="25.01"/><rect class="cls-1" x="81.32" y="99.84" width="25.01" height="25.28" transform="translate(174.83 -6.88) rotate(90)"/><rect class="cls-1" x="56.32" y="124.66" width="25.01" height="25.28" transform="translate(174.65 42.94) rotate(90)"/><rect class="cls-1" x="31.61" y="149.01" width="25.01" height="25.28" transform="translate(174.29 92) rotate(90)"/><rect class="cls-2" x="124.48" y="24.81" width="24.74" height="25"/><polygon class="cls-2" points="124.71 49.52 124.71 49.85 123.71 49.85 123.71 74.53 99.96 74.53 99.96 49.52 124.71 49.52"/><rect class="cls-2" x="74.91" y="74.33" width="24.74" height="25.01"/><rect class="cls-2" x="49.99" y="99.09" width="25.03" height="25"/><rect class="cls-2" x="24.87" y="123.78" width="25.22" height="24.63"/><rect class="cls-3" x="50.09" y="124.06" width="24.93" height="0.03"/><rect class="cls-3" x="50.09" y="147.73" width="19.94" height="0.68"/><rect class="cls-3" x="87.6" y="148.12" width="0.43" height="0.29"/><rect class="cls-3" x="224.6" y="148.12" width="24.43" height="0.29"/><rect class="cls-3" x="224.14" y="124.06" width="24.89" height="0.21"/><rect class="cls-3" x="75.02" y="99.13" width="24.63" height="0.21"/><rect class="cls-3" x="199.33" y="99.13" width="24.68" height="0.38"/><rect class="cls-3" x="99.37" y="74.78" width="0.28" height="24.35"/><rect class="cls-3" x="174.24" y="74.78" width="24.84" height="0.16"/><rect class="cls-3" x="149.28" y="49.85" width="24.87" height="0.1"/><rect class="cls-1" x="55.5" y="173.65" width="25.94" height="125.12" transform="translate(105.46 446.89) rotate(-180)"/><rect class="cls-1" x="224.6" y="148.12" width="25.37" height="125.12"/><rect class="cls-1" x="92.6" y="163.92" width="25.37" height="109.32"/><rect class="cls-1" x="156.03" y="163.92" width="24.94" height="109.32"/><rect class="cls-1" x="111.03" y="163.92" width="50" height="22"/><rect class="cls-1" x="156.03" y="272.92" width="94" height="27"/><rect class="cls-1" x="24.03" y="271.92" width="94" height="27"/><rect class="cls-3" x="61.87" y="147.97" width="8.16" height="123.71"/><rect class="cls-3" x="87.6" y="148.12" width="0.43" height="0.29"/><rect class="cls-2" x="49.58" y="147.73" width="20.45" height="124.19"/><polygon class="cls-3" points="249.22 124.27 249.22 148.12 224.59 148.12 224.59 272.92 180.97 272.92 180.97 148.41 184.97 148.41 184.97 148.12 161.03 148.12 161.03 147.92 111.03 147.92 111.03 148.12 87.59 148.12 87.59 148.41 92.59 148.41 92.59 271.92 70.03 271.92 70.03 147.73 50.09 147.73 50.09 124.09 75.02 124.09 75.02 99.34 99.65 99.34 99.65 74.46 99.96 74.46 99.96 74.53 123.71 74.53 123.71 49.85 149.28 49.85 149.28 49.95 174.24 49.95 174.24 74.94 199.32 74.94 199.32 99.51 224 99.51 224 124.06 224.13 124.06 224.13 124.27 249.22 124.27"/><rect class="cls-3" x="61.87" y="271.68" width="8.16" height="0.24"/><path class="cls-3" d="M255.61,149.8V125H230.8V100.47H205.71v-25h-25v-25h-.06V75.34H156.18v0h-1v24.68H131.43V100h-.31v24.88H106.49v24.75H81.56v23.64H101.5V297.45h22.57v-108h88.37v109h43.63V173.65h24.62V149.8ZM119.07,173.94v-.29h.43v.29Z" transform="translate(-31.47 -25.53)"/><rect class="cls-3" x="224.6" y="148.12" width="0.43" height="124.8"/></svg>