<svg id="Lag_1" data-name="Lag 1" xmlns="http://www.w3.org/2000/svg" viewBox="0 0 612 543.37"><defs><style>.cls-1{fill:#1a009b;}.cls-2{fill:#2991f8;}.cls-3{fill:#154dde;}</style></defs><rect class="cls-1" x="612.59" y="275.6" width="43.13" height="43.61" transform="translate(1224.59 569) rotate(-180)"/><rect class="cls-1" x="525.84" y="293.1" width="43.14" height="43.6"/><rect class="cls-1" x="482.73" y="336.16" width="43.14" height="43.61"/><rect class="cls-1" x="440.35" y="379.44" width="43.13" height="43.61"/><rect class="cls-1" x="397.63" y="422.23" width="43.14" height="43.61"/><rect class="cls-1" x="354.86" y="465.49" width="43.14" height="43.61"/><rect class="cls-1" x="569.89" y="232.95" width="43.13" height="43.61" transform="translate(1139.2 483.7) rotate(-180)"/><rect class="cls-1" x="527.29" y="190.62" width="43.13" height="43.61" transform="translate(1053.99 399.04) rotate(-180)"/><rect class="cls-1" x="484.18" y="147.16" width="43.13" height="43.61" transform="translate(967.77 312.12) rotate(-180)"/><rect class="cls-1" x="441.36" y="104.04" width="43.13" height="43.61" transform="translate(882.14 225.88) rotate(-180)"/><rect class="cls-1" x="399.35" y="61.41" width="43.13" height="43.61" transform="translate(798.12 140.62) rotate(-180)"/><rect class="cls-1" x="312.96" width="43.14" height="165"/><rect class="cls-1" x="312.47" y="379" width="43.13" height="164.37"/><rect class="cls-1" y="379.16" width="313.18" height="43.61"/><rect class="cls-1" x="44.14" y="146.5" width="313.18" height="43.61" transform="translate(357.75 310.8) rotate(-180)"/><rect class="cls-1" x="0.25" y="164.16" width="43.75" height="215.84"/><rect class="cls-2" x="569.79" y="276.13" width="43.13" height="42.68" transform="translate(1139 569.13) rotate(-180)"/><rect class="cls-2" x="483.45" y="208.03" width="43.13" height="42.68"/><rect class="cls-2" x="440.64" y="164.81" width="43.14" height="42.69"/><rect class="cls-2" x="397.94" y="121.83" width="43.13" height="43.17"/><rect class="cls-2" x="356" y="78.49" width="42.48" height="43.51"/><rect class="cls-2" x="44" y="164.23" width="312.22" height="43.61"/><rect class="cls-3" x="44" y="208" width="312" height="171"/><polygon class="cls-3" points="356.22 164.23 356.22 207.84 356 207.84 356 122 356.1 122 356.1 164.23 356.22 164.23"/><rect class="cls-3" x="397.94" y="122" width="0.06" height="43"/><rect class="cls-3" x="397.63" y="422.23" width="0.37" height="42.77"/><rect class="cls-3" x="440.64" y="165" width="0.36" height="42.5"/><rect class="cls-3" x="440.35" y="379.44" width="0.65" height="42.56"/><rect class="cls-3" x="441" y="207" width="42" height="0.5"/><rect class="cls-3" x="482.73" y="336.16" width="0.27" height="42.84"/><polygon class="cls-3" points="526 250.71 526 293.1 525.84 293.1 525.84 336 483 336 483 336.16 482.73 336.16 482.73 379 441 379 441 379.44 440.35 379.44 440.35 422 398 422 398 422.23 397.63 422.23 397.63 465.49 355.6 465.49 355.6 379 312.47 379 312.47 379.16 44 379.16 44 207.84 356.22 207.84 356.22 164.23 356.1 164.23 356.1 122 397.94 122 397.94 165 440.64 165 440.64 207.5 483 207.5 483 249 483.45 249 483.45 250.71 526 250.71"/><rect class="cls-3" x="483.45" y="249" width="42.55" height="1.71"/><rect class="cls-3" x="525.84" y="293.1" width="0.16" height="42.9"/></svg>