<svg id="Lag_1" data-name="Lag 1" xmlns="http://www.w3.org/2000/svg" viewBox="0 0 243.25 196.41"><defs><style>.cls-1{fill:#f9e8f3;}.cls-2{fill:#191118;}.cls-3{fill:#c7c6c6;}.cls-4{fill:#2b222a;}</style></defs><polygon class="cls-1" points="215.61 39.81 215.61 114.13 204.55 114.13 204.55 127.4 187.97 127.4 187.97 132.71 171.38 132.71 171.38 143.33 71.87 143.33 71.87 132.71 55.28 132.71 55.28 127.4 38.7 127.4 38.7 114.13 27.64 114.13 27.64 39.81 33.17 39.81 33.17 29.2 41.46 29.2 41.46 18.58 52.52 18.58 52.52 5.31 71.87 5.31 71.87 0 171.38 0 171.38 5.31 190.73 5.31 190.73 21.23 201.79 21.23 201.79 31.85 210.08 31.85 210.08 39.81 215.61 39.81"/><polygon class="cls-2" points="105.04 42.47 105.04 50.43 96.75 50.43 96.75 74.32 60.81 74.32 60.81 61.05 77.4 61.05 77.4 42.47 82.93 42.47 82.93 39.81 74.63 39.81 74.63 37.16 66.34 37.16 66.34 29.2 74.63 29.2 74.63 31.85 82.93 31.85 82.93 34.51 91.22 34.51 91.22 37.16 99.51 37.16 99.51 42.47 105.04 42.47"/><polygon class="cls-2" points="182.44 61.05 182.44 74.32 146.5 74.32 146.5 50.43 138.21 50.43 138.21 42.47 143.74 42.47 143.74 37.16 152.03 37.16 152.03 34.51 160.32 34.51 160.32 31.85 168.62 31.85 168.62 29.2 176.91 29.2 176.91 37.16 168.62 37.16 168.62 39.81 160.32 39.81 160.32 42.47 165.85 42.47 165.85 61.05 182.44 61.05"/><polygon class="cls-2" points="243.25 21.23 243.25 53.08 237.72 53.08 237.72 61.05 215.61 61.05 215.61 39.81 210.08 39.81 210.08 31.85 201.79 31.85 201.79 21.23 190.73 21.23 190.73 0 226.66 0 226.66 5.31 234.96 5.31 234.96 21.23 243.25 21.23"/><polygon class="cls-2" points="0 21.23 0 53.08 5.53 53.08 5.53 61.05 27.64 61.05 27.64 39.81 33.17 39.81 33.17 31.85 41.46 31.85 41.46 21.23 52.52 21.23 52.52 0 16.59 0 16.59 5.31 8.29 5.31 8.29 21.23 0 21.23"/><polygon class="cls-2" points="132.68 84.94 132.68 95.55 129.53 95.55 129.53 100.86 126.35 100.86 126.35 103.51 124.39 103.51 124.39 114.13 118.86 114.13 118.86 103.51 116.9 103.51 116.9 100.86 113.72 100.86 113.72 95.55 110.57 95.55 110.57 84.94 132.68 84.94"/><rect class="cls-2" x="113.33" y="114.13" width="5.53" height="5.31"/><rect class="cls-2" x="124.39" y="114.13" width="5.53" height="5.31"/><rect class="cls-2" x="102.28" y="119.44" width="11.06" height="5.31"/><rect class="cls-2" x="129.92" y="119.44" width="11.06" height="5.31"/><rect class="cls-2" x="140.97" y="114.13" width="5.53" height="5.31"/><rect class="cls-2" x="96.75" y="114.13" width="5.53" height="5.31"/><rect class="cls-2" x="113.33" y="124.75" width="16.59" height="5.31"/><polygon class="cls-3" points="129.92 119.44 129.92 124.75 113.33 124.75 113.33 119.44 118.86 119.44 118.86 114.13 124.39 114.13 124.39 119.44 129.92 119.44"/><rect class="cls-3" x="140.97" y="69.01" width="5.53" height="5.31"/><rect class="cls-3" x="146.5" y="74.32" width="5.53" height="5.31"/><polygon class="cls-3" points="157.56 79.63 157.56 114.13 154.79 114.13 154.79 119.44 146.5 119.44 146.5 114.13 152.03 114.13 152.03 79.63 157.56 79.63"/><rect class="cls-3" x="100.12" y="102.6" width="5.53" height="5.31" transform="translate(202.4 176.92) rotate(-180)"/><rect class="cls-3" x="94.59" y="107.91" width="5.53" height="5.31" transform="translate(191.34 187.53) rotate(-180)"/><polygon class="cls-3" points="96.75 114.13 96.75 119.44 88.45 119.44 88.45 114.13 85.69 114.13 85.69 79.63 91.22 79.63 91.22 114.13 96.75 114.13"/><polygon class="cls-3" points="215.61 39.81 215.61 114.13 204.55 114.13 204.55 127.4 187.97 127.4 187.97 132.71 171.38 132.71 171.38 143.33 71.87 143.33 71.87 132.71 55.28 132.71 55.28 127.4 38.7 127.4 38.7 114.13 27.64 114.13 27.64 39.81 33.17 39.81 33.17 31.85 38.7 31.85 38.7 108.82 44.23 108.82 44.23 122.09 60.81 122.09 60.81 127.4 77.4 127.4 77.4 135.37 165.85 135.37 165.85 127.4 182.44 127.4 182.44 122.09 199.02 122.09 199.02 108.82 204.55 108.82 204.55 31.85 210.08 31.85 210.08 39.81 215.61 39.81"/><polygon class="cls-4" points="52.52 0 52.52 7.96 16.59 7.96 16.59 21.23 8.29 21.23 8.29 5.31 16.59 5.31 16.59 0 52.52 0"/><polygon class="cls-4" points="234.96 5.31 234.96 21.23 226.66 21.23 226.66 7.96 190.73 7.96 190.73 0 226.66 0 226.66 5.31 234.96 5.31"/><polygon class="cls-1" points="187.97 177.83 187.97 196.41 55.28 196.41 55.28 177.83 91.22 177.83 91.22 167.22 152.03 167.22 152.03 177.83 187.97 177.83"/><polygon class="cls-2" points="229.43 161.91 229.43 196.41 187.97 196.41 187.97 177.83 152.03 177.83 152.03 167.22 91.22 167.22 91.22 177.83 55.28 177.83 55.28 196.41 13.82 196.41 13.82 161.91 30.41 161.91 30.41 151.29 55.28 151.29 55.28 143.33 187.97 143.33 187.97 151.29 212.84 151.29 212.84 161.91 229.43 161.91"/><polygon class="cls-4" points="46.99 151.29 46.99 156.6 38.7 156.6 38.7 164.56 30.41 164.56 30.41 169.87 22.11 169.87 22.11 196.41 13.82 196.41 13.82 161.91 30.41 161.91 30.41 151.29 46.99 151.29"/><polygon class="cls-4" points="196.26 151.29 196.26 156.6 204.55 156.6 204.55 164.56 212.84 164.56 212.84 169.87 221.13 169.87 221.13 196.41 229.43 196.41 229.43 161.91 212.84 161.91 212.84 151.29 196.26 151.29"/><rect class="cls-3" x="55.28" y="177.83" width="5.53" height="18.58"/><rect class="cls-3" x="182.44" y="177.83" width="5.53" height="18.58"/><rect class="cls-3" x="60.81" y="177.83" width="30.41" height="5.31"/><rect class="cls-3" x="152.03" y="177.83" width="30.41" height="5.31"/><rect class="cls-3" x="91.22" y="167.22" width="5.53" height="13.27"/><rect class="cls-3" x="149.27" y="167.22" width="2.76" height="13.27"/><rect class="cls-3" x="93.98" y="167.22" width="55.28" height="2.65"/></svg>