<svg id="Lag_1" data-name="Lag 1" xmlns="http://www.w3.org/2000/svg" viewBox="0 0 204.12 221.65"><defs><style>.cls-1{fill:#964f2f;}.cls-2{fill:#7a391c;}.cls-3{fill:#bf7656;}.cls-4{fill:#191118;}.cls-5{fill:#2b222a;}</style></defs><polygon class="cls-1" points="204.12 100.97 204.12 137.91 0 137.91 0 100.97 11.5 100.97 11.5 88.66 28.75 88.66 28.75 68.96 40.25 68.96 40.25 54.18 54.62 54.18 54.62 39.4 66.12 39.4 66.12 22.16 89.12 22.16 89.12 9.85 100.62 9.85 100.62 0 158.12 0 158.12 22.16 138 22.16 138 44.33 149.5 44.33 149.5 54.18 163.87 54.18 163.87 68.96 175.37 68.96 175.37 88.66 192.62 88.66 192.62 100.97 204.12 100.97"/><polygon class="cls-2" points="204.12 100.97 204.12 137.91 0 137.91 0 130.53 192.62 130.53 192.62 108.36 186.87 108.36 186.87 96.05 28.75 96.05 28.75 88.66 169.62 88.66 169.62 73.88 158.12 73.88 158.12 61.57 40.25 61.57 40.25 54.18 138 54.18 138 46.79 132.25 46.79 132.25 27.09 66.12 27.09 66.12 22.16 132.25 22.16 132.25 17.24 152.37 17.24 152.37 4.93 158.12 4.93 158.12 22.16 138 22.16 138 44.33 149.5 44.33 149.5 54.18 163.87 54.18 163.87 68.96 175.37 68.96 175.37 88.66 192.62 88.66 192.62 100.97 204.12 100.97"/><rect class="cls-2" x="132.25" y="44.33" width="14.37" height="4.93"/><polygon class="cls-3" points="28.75 88.66 28.75 96.05 17.25 96.05 17.25 108.36 11.5 108.36 11.5 130.53 0 130.53 0 100.97 11.5 100.97 11.5 88.66 28.75 88.66"/><rect class="cls-3" x="40.25" y="54.18" width="5.75" height="14.78"/><rect class="cls-3" x="66.12" y="22.16" width="5.75" height="14.78"/><rect class="cls-3" x="89.12" y="9.85" width="5.75" height="12.31"/><rect class="cls-3" x="100.62" width="57.5" height="4.93"/><polygon class="cls-3" points="169.62 83.73 169.62 88.66 28.75 88.66 28.75 68.96 37.37 68.96 37.37 83.73 169.62 83.73"/><polygon class="cls-3" points="138 49.26 138 54.18 54.62 54.18 54.62 39.4 60.37 39.4 60.37 49.26 138 49.26"/><polygon class="cls-4" points="77.62 145.3 77.62 221.65 23 221.65 23 145.3 28.75 145.3 28.75 137.91 34.5 137.91 34.5 132.99 66.12 132.99 66.12 137.91 71.87 137.91 71.87 145.3 77.62 145.3"/><rect class="cls-4" x="120.75" y="145.3" width="5.75" height="76.35"/><polygon class="cls-4" points="175.37 145.3 175.37 221.65 126.5 221.65 126.5 137.91 132.25 137.91 132.25 132.99 163.87 132.99 163.87 137.91 169.62 137.91 169.62 145.3 175.37 145.3"/><rect class="cls-5" x="23" y="145.3" width="5.75" height="76.35"/><rect class="cls-5" x="120.75" y="145.3" width="5.75" height="76.35"/></svg>