<svg id="Lag_1" data-name="Lag 1" xmlns="http://www.w3.org/2000/svg" viewBox="0 0 264.3 216.63"><defs><style>.cls-1{fill:#1a009b;}.cls-2{fill:#2991f8;}.cls-3{fill:#154dde;}</style></defs><rect class="cls-1" x="196.1" y="137.51" width="0.12" height="19.6"/><rect class="cls-1" x="157.17" y="176.88" width="0.16" height="19.57"/><rect class="cls-1" x="138.12" y="196.26" width="19.21" height="0.19"/><polygon class="cls-1" points="264.3 59.05 264.3 157.26 263.95 157.26 263.95 157.46 196.44 157.46 196.44 177.26 176.9 177.26 176.9 196.84 157.33 196.84 157.33 216.63 118.95 216.63 118.95 216.26 118.2 216.26 118.2 19.95 117.95 19.95 117.95 0 157.68 0 157.68 19.5 176.9 19.5 176.9 39.27 196.44 39.27 196.44 59.11 176.84 59.11 176.84 59.2 176.71 59.2 176.71 39.45 157.55 39.45 157.55 19.62 138.12 19.62 138.12 19.95 137.94 19.95 137.94 196.26 138.12 196.26 138.12 196.45 157.33 196.45 157.33 176.88 174.95 176.88 174.95 176.78 177.01 176.78 177.01 157.31 196.1 157.31 196.1 157.11 196.22 157.11 196.22 137.51 244.57 137.51 244.57 78.89 196.48 78.89 196.48 78.64 196.58 78.64 196.58 59.11 244.57 59.11 244.57 59.05 264.3 59.05"/><rect class="cls-1" x="196.48" y="59.11" width="0.1" height="19.53"/><rect class="cls-1" x="196.48" y="78.89" width="48.09" height="0.17"/><rect class="cls-1" x="157.17" y="19.62" width="0.38" height="19.83"/><rect class="cls-1" x="138.12" y="19.62" width="19.43" height="0.33"/><rect class="cls-2" x="196.43" y="78.89" width="48.14" height="19.52"/><rect class="cls-2" x="176.84" y="59.11" width="19.74" height="19.53"/><rect class="cls-2" x="157.31" y="39.45" width="19.4" height="19.75"/><rect class="cls-2" x="176.84" y="59.11" width="0.2" height="0.09"/><rect class="cls-2" x="138.12" y="19.62" width="19.43" height="19.91"/><rect class="cls-3" x="157.31" y="39.53" width="0.02" height="19.67"/><polygon class="cls-3" points="157.33 176.88 157.33 196.45 138.12 196.45 138.12 196.26 157.17 196.26 157.17 176.88 157.33 176.88"/><polygon class="cls-3" points="177.01 59.2 177.01 78.64 176.84 78.64 176.84 59.23 176.71 59.23 176.71 59.2 177.01 59.2"/><rect class="cls-3" x="177.01" y="78.41" width="19.21" height="0.23"/><rect class="cls-3" x="196.1" y="137.51" width="0.12" height="19.6"/><polygon class="cls-3" points="244.57 98.41 244.57 137.43 196.22 137.43 196.22 137.51 196.1 137.51 196.1 157.31 177.01 157.31 177.01 176.78 174.95 176.78 174.95 176.88 157.17 176.88 157.17 196.26 137.94 196.26 137.94 19.95 138.12 19.95 138.12 39.53 157.31 39.53 157.31 59.2 176.71 59.2 176.71 59.23 176.84 59.23 176.84 78.64 196.48 78.64 196.48 78.89 196.43 78.89 196.43 98.41 244.57 98.41"/><rect class="cls-3" x="196.43" y="97.63" width="48.14" height="0.78"/><rect class="cls-1" x="120.78" y="122.74" width="19.73" height="51" transform="translate(218.73 260.31) rotate(-180)"/><rect class="cls-1" x="80.19" y="75.44" width="19.73" height="138" transform="translate(137.54 252.7) rotate(-180)"/><rect class="cls-1" x="42.57" y="36.44" width="19.73" height="216" transform="translate(62.31 252.7) rotate(-180)"/><polygon class="cls-1" points="196.44 59.11 196.44 59.23 176.71 59.23 176.71 59.2 176.84 59.2 176.84 59.11 196.44 59.11"/></svg>