<svg id="Lag_1" data-name="Lag 1" xmlns="http://www.w3.org/2000/svg" viewBox="0 0 636.4 287.94"><defs><style>.cls-1{fill:#2991f8;}.cls-2{fill:#154dde;}.cls-3{fill:#1a009b;}</style></defs><rect class="cls-1" x="127.98" y="12.15" width="29.35" height="6.04"/><rect class="cls-1" x="125.93" y="91.59" width="29.29" height="6.03"/><rect class="cls-1" x="157.17" y="18.2" width="6.3" height="6.47"/><rect class="cls-1" x="163.34" y="24.52" width="6.16" height="6.42"/><rect class="cls-1" x="119.82" y="85.35" width="6.23" height="6.42"/><rect class="cls-1" x="113.83" y="78.81" width="6.16" height="6.53"/><rect class="cls-1" x="121.88" y="18.14" width="6.16" height="6.42"/><rect class="cls-1" x="155.11" y="85.32" width="6.16" height="6.42"/><rect class="cls-1" x="115.92" y="24.46" width="5.94" height="18.81"/><rect class="cls-1" x="161.22" y="66.47" width="5.94" height="18.81"/><rect class="cls-1" x="151.38" y="60.41" width="9.84" height="6.06"/><rect class="cls-1" x="141.54" y="54.77" width="9.84" height="6.06"/><rect class="cls-1" x="131.71" y="49.12" width="9.84" height="6.06"/><rect class="cls-1" x="121.87" y="43.06" width="9.84" height="6.06"/><rect class="cls-2" x="109.98" y="18.19" width="5.94" height="30.94"/><rect class="cls-2" x="167.16" y="60.41" width="5.94" height="30.94"/><rect class="cls-2" x="115.92" y="43.27" width="5.94" height="11.92"/><rect class="cls-2" x="125.76" y="49.12" width="5.94" height="11.92"/><rect class="cls-2" x="135.6" y="55.19" width="5.94" height="11.92"/><rect class="cls-2" x="145.44" y="60.83" width="5.94" height="11.92"/><rect class="cls-2" x="155.07" y="66.47" width="6.15" height="18.81"/><rect class="cls-2" x="149.13" y="79.85" width="6.15" height="11.92"/><rect class="cls-2" x="125.97" y="78.81" width="5.94" height="12.96"/><rect class="cls-2" x="119.82" y="72.54" width="6.15" height="12.96"/><rect class="cls-2" x="121.66" y="49.12" width="5.74" height="6.06"/><rect class="cls-2" x="130.89" y="55.19" width="5.74" height="5.85"/><rect class="cls-2" x="140.72" y="60.83" width="5.74" height="6.27"/><rect class="cls-2" x="150.36" y="66.47" width="5.74" height="6.27"/><rect class="cls-2" x="107.73" y="72.54" width="6.15" height="12.75"/><rect class="cls-2" x="107.73" y="85.29" width="12.09" height="6.48"/><rect class="cls-2" x="113.88" y="91.77" width="12.09" height="5.85"/><rect class="cls-2" x="119.82" y="97.62" width="41.4" height="6.06"/><rect class="cls-2" x="155.07" y="91.77" width="12.09" height="6.48"/><rect class="cls-2" x="161.22" y="85.29" width="11.89" height="6.48"/><rect class="cls-2" x="161.22" y="54.56" width="5.94" height="11.92"/><rect class="cls-2" x="151.38" y="48.92" width="5.94" height="11.92"/><rect class="cls-2" x="141.54" y="43.27" width="5.94" height="11.92"/><rect class="cls-2" x="131.71" y="37.21" width="5.94" height="11.92"/><rect class="cls-2" x="121.87" y="24.46" width="6.15" height="18.81"/><rect class="cls-2" x="126.99" y="37.21" width="5.74" height="6.06"/><rect class="cls-2" x="136.22" y="43.27" width="5.74" height="5.85"/><rect class="cls-2" x="146.87" y="48.92" width="5.74" height="6.27"/><rect class="cls-2" x="156.92" y="54.56" width="5.74" height="6.27"/><rect class="cls-2" x="113.88" y="72.54" width="5.94" height="6.27"/><rect class="cls-2" x="131.71" y="85.29" width="17.42" height="6.48"/><rect class="cls-2" x="133.76" y="18.19" width="17.83" height="6.48"/><rect class="cls-2" x="121.87" y="6.06" width="41.4" height="6.06"/><rect class="cls-2" x="128.02" y="18.19" width="5.94" height="12.96"/><rect class="cls-2" x="151.38" y="18.19" width="5.94" height="12.96"/><rect class="cls-2" x="109.98" y="18.19" width="11.89" height="6.48"/><rect class="cls-2" x="116.13" y="11.71" width="11.89" height="6.48"/><rect class="cls-2" x="157.33" y="11.71" width="11.89" height="6.48"/><rect class="cls-2" x="163.47" y="18.19" width="11.89" height="6.48"/><rect class="cls-2" x="157.12" y="24.67" width="6.35" height="11.92"/><rect class="cls-2" x="169.42" y="24.46" width="5.94" height="12.12"/><rect class="cls-2" x="163.27" y="30.94" width="6.35" height="5.64"/><rect class="cls-3" x="121.87" width="41.4" height="6.06"/><rect class="cls-3" x="119.82" y="103.68" width="41.4" height="6.06"/><rect class="cls-3" x="161.22" y="98.25" width="5.94" height="5.44"/><rect class="cls-3" x="167.16" y="91.77" width="5.94" height="6.48"/><rect class="cls-3" x="167.16" y="54.56" width="5.94" height="5.85"/><rect class="cls-3" x="147.49" y="43.27" width="9.84" height="5.64"/><rect class="cls-3" x="157.33" y="48.92" width="9.84" height="5.64"/><rect class="cls-3" x="137.65" y="37.21" width="9.84" height="6.06"/><rect class="cls-3" x="128.02" y="31.15" width="9.63" height="6.06"/><rect class="cls-3" x="133.96" y="24.67" width="17.42" height="6.48"/><rect class="cls-3" x="151.38" y="31.15" width="5.74" height="5.44"/><rect class="cls-3" x="145.44" y="72.75" width="9.63" height="7.11"/><rect class="cls-3" x="113.88" y="97.62" width="5.94" height="6.06"/><rect class="cls-3" x="107.73" y="91.77" width="6.15" height="5.85"/><rect class="cls-3" x="125.97" y="72.54" width="5.94" height="6.27"/><rect class="cls-3" x="131.91" y="79.02" width="17.22" height="6.27"/><rect class="cls-3" x="135.6" y="67.1" width="9.84" height="5.64"/><rect class="cls-3" x="125.76" y="61.04" width="9.84" height="6.06"/><rect class="cls-3" x="115.92" y="55.19" width="9.84" height="5.85"/><rect class="cls-3" x="109.98" y="49.12" width="5.94" height="6.06"/><rect class="cls-3" x="109.98" y="11.71" width="6.15" height="6.48"/><rect class="cls-3" x="116.13" y="6.06" width="5.74" height="5.64"/><rect class="cls-3" x="163.27" y="6.06" width="5.94" height="5.64"/><rect class="cls-3" x="169.21" y="11.71" width="6.15" height="6.48"/><rect class="cls-3" x="107.73" y="66.27" width="18.24" height="6.27"/><rect class="cls-3" x="157.12" y="36.58" width="18.24" height="6.27"/><rect class="cls-3" x="173.11" y="60.41" width="5.94" height="31.36"/><rect class="cls-3" x="175.36" y="18.19" width="5.94" height="18.4"/><rect class="cls-3" x="101.78" y="72.54" width="5.94" height="19.23"/><rect class="cls-3" x="104.04" y="18.19" width="5.94" height="30.94"/><rect class="cls-1" x="226.73" y="20.5" width="6.56" height="77.89"/><rect class="cls-1" x="202.17" y="14.46" width="55.52" height="6.06"/><rect class="cls-2" x="233.21" y="20.52" width="6.34" height="83.41"/><rect class="cls-2" x="220.53" y="20.52" width="6.34" height="83.41"/><rect class="cls-2" x="202.17" y="8.4" width="55.52" height="6.06"/><rect class="cls-2" x="239.55" y="20.52" width="18.14" height="6.06"/><rect class="cls-2" x="202.17" y="20.52" width="18.36" height="6.06"/><rect class="cls-2" x="224.25" y="98.29" width="14.43" height="5.64"/><rect class="cls-2" x="195.62" y="8.4" width="6.56" height="18.19"/><rect class="cls-2" x="257.69" y="8.4" width="6.56" height="18.19"/><rect class="cls-3" x="195.62" y="2.34" width="68.64" height="6.06"/><rect class="cls-3" x="239.55" y="26.59" width="24.7" height="6.06"/><rect class="cls-3" x="195.62" y="26.59" width="24.92" height="6.06"/><rect class="cls-3" x="189.28" y="8.4" width="6.34" height="18.19"/><rect class="cls-3" x="264.25" y="8.4" width="6.34" height="18.19"/><rect class="cls-3" x="220.53" y="103.93" width="19.02" height="6.06"/><rect class="cls-3" x="214.2" y="32.65" width="6.34" height="71.28"/><rect class="cls-3" x="239.55" y="32.44" width="6.34" height="71.49"/><rect class="cls-1" x="290.94" y="29.59" width="6.92" height="68.1"/><rect class="cls-1" x="344.63" y="29.59" width="6.92" height="68.1"/><rect class="cls-1" x="304.78" y="17.02" width="32.93" height="6.17"/><rect class="cls-1" x="297.86" y="17.02" width="6.92" height="12.57"/><rect class="cls-1" x="337.71" y="17.02" width="6.92" height="12.87"/><rect class="cls-2" x="290.94" y="10.62" width="60.62" height="6.63"/><rect class="cls-2" x="290.94" y="17.25" width="6.92" height="12.34"/><rect class="cls-2" x="344.63" y="17.25" width="6.92" height="12.34"/><rect class="cls-2" x="351.55" y="23.42" width="6.92" height="74.27"/><rect class="cls-2" x="284.02" y="23.65" width="6.92" height="74.04"/><rect class="cls-2" x="284.02" y="97.69" width="20.76" height="6.63"/><rect class="cls-2" x="337.71" y="97.69" width="20.76" height="6.63"/><rect class="cls-2" x="297.86" y="29.59" width="6.92" height="74.04"/><rect class="cls-2" x="337.71" y="29.89" width="6.92" height="73.74"/><rect class="cls-2" x="304.78" y="23.19" width="32.93" height="6.63"/><rect class="cls-2" x="304.78" y="29.82" width="6.92" height="6.63"/><rect class="cls-2" x="331.03" y="29.82" width="6.66" height="6.63"/><rect class="cls-2" x="304.78" y="57.47" width="32.93" height="6.63"/><rect class="cls-2" x="304.78" y="62.95" width="32.93" height="6.63"/><rect class="cls-3" x="290.94" y="3.99" width="60.62" height="6.63"/><rect class="cls-3" x="284.02" y="10.62" width="6.92" height="13.03"/><rect class="cls-3" x="351.55" y="10.62" width="6.92" height="13.03"/><rect class="cls-3" x="277.1" y="23.65" width="6.92" height="80.67"/><rect class="cls-3" x="358.48" y="23.65" width="6.92" height="80.67"/><rect class="cls-3" x="284.02" y="104.32" width="20.76" height="6.63"/><rect class="cls-3" x="337.71" y="104.32" width="20.76" height="6.63"/><rect class="cls-3" x="304.78" y="69.58" width="6.92" height="34.74"/><rect class="cls-3" x="330.79" y="69.58" width="6.92" height="34.74"/><rect class="cls-3" x="311.7" y="69.58" width="20.76" height="6.63"/><rect class="cls-3" x="311.7" y="29.82" width="19.33" height="6.63"/><rect class="cls-3" x="331.03" y="36.44" width="6.68" height="21.02"/><rect class="cls-3" x="304.78" y="36.44" width="6.92" height="21.02"/><rect class="cls-3" x="311.7" y="50.84" width="19.33" height="6.63"/><rect class="cls-1" x="389.42" y="15.58" width="6.18" height="80.45"/><rect class="cls-1" x="395.17" y="15.58" width="33.88" height="6.17"/><rect class="cls-1" x="395.6" y="55.58" width="33.88" height="6.17"/><rect class="cls-1" x="429.05" y="21.75" width="6.18" height="6.63"/><rect class="cls-1" x="429.05" y="48.95" width="6.18" height="6.63"/><rect class="cls-1" x="435.23" y="28.38" width="6.18" height="20.57"/><rect class="cls-2" x="383.24" y="15.58" width="6.18" height="87.31"/><rect class="cls-2" x="395.6" y="61.75" width="6.18" height="41.14"/><rect class="cls-2" x="395.6" y="21.75" width="6.18" height="33.83"/><rect class="cls-2" x="441.41" y="21.75" width="6.18" height="33.83"/><rect class="cls-2" x="435.23" y="48.95" width="6.18" height="13.03"/><rect class="cls-2" x="435.23" y="15.35" width="6.18" height="13.03"/><rect class="cls-2" x="429.05" y="55.35" width="6.18" height="13.03"/><rect class="cls-2" x="429.05" y="8.72" width="6.18" height="13.03"/><rect class="cls-2" x="383.24" y="8.72" width="45.82" height="6.86"/><rect class="cls-2" x="401.78" y="21.75" width="27.28" height="6.63"/><rect class="cls-2" x="401.78" y="48.95" width="27.28" height="6.63"/><rect class="cls-2" x="428.84" y="35" width="6.39" height="7.54"/><rect class="cls-2" x="423.3" y="28.38" width="11.93" height="6.86"/><rect class="cls-2" x="423.3" y="42.55" width="11.93" height="6.4"/><rect class="cls-2" x="389.42" y="96.03" width="7.03" height="6.86"/><rect class="cls-3" x="377.06" y="8.72" width="6.18" height="94.17"/><rect class="cls-3" x="401.78" y="74.32" width="6.18" height="28.57"/><rect class="cls-3" x="447.59" y="21.75" width="6.18" height="33.6"/><rect class="cls-3" x="401.78" y="28.38" width="6.18" height="20.57"/><rect class="cls-3" x="441.41" y="55.35" width="6.18" height="6.63"/><rect class="cls-3" x="435.23" y="61.75" width="7.03" height="12.8"/><rect class="cls-3" x="441.41" y="15.35" width="6.18" height="6.4"/><rect class="cls-3" x="435.23" y="8.72" width="6.18" height="6.63"/><rect class="cls-3" x="383.14" y="2.09" width="52.09" height="6.63"/><rect class="cls-3" x="383.24" y="102.89" width="18.54" height="6.63"/><rect class="cls-3" x="423.3" y="35.23" width="5.75" height="7.31"/><rect class="cls-3" x="407.74" y="28.38" width="15.56" height="6.86"/><rect class="cls-3" x="407.74" y="42.55" width="15.56" height="6.4"/><rect class="cls-1" x="411.37" y="61.06" width="6.18" height="7.31"/><rect class="cls-1" x="417.55" y="67.69" width="6.18" height="6.63"/><rect class="cls-1" x="423.73" y="74.32" width="6.18" height="6.63"/><rect class="cls-1" x="429.91" y="80.95" width="6.18" height="6.63"/><rect class="cls-1" x="436.09" y="87.57" width="6.18" height="6.63"/><rect class="cls-2" x="417.55" y="61.75" width="11.93" height="6.63"/><rect class="cls-2" x="399.43" y="61.75" width="11.93" height="6.63"/><rect class="cls-2" x="405.61" y="68.38" width="11.93" height="5.94"/><rect class="cls-2" x="411.58" y="74.32" width="12.15" height="6.63"/><rect class="cls-2" x="417.76" y="80.95" width="12.15" height="6.63"/><rect class="cls-2" x="423.94" y="87.57" width="12.15" height="6.63"/><rect class="cls-2" x="430.12" y="94.2" width="18.33" height="6.63"/><rect class="cls-2" x="423.73" y="68.38" width="11.51" height="6.17"/><rect class="cls-2" x="429.91" y="74.55" width="12.36" height="6.4"/><rect class="cls-2" x="436.09" y="80.95" width="12.36" height="6.63"/><rect class="cls-2" x="442.27" y="87.57" width="6.18" height="6.63"/><rect class="cls-3" x="401.78" y="68.15" width="3.84" height="6.63"/><rect class="cls-3" x="407.74" y="74.32" width="3.84" height="6.63"/><rect class="cls-3" x="407.53" y="80.95" width="10.23" height="6.63"/><rect class="cls-3" x="417.76" y="87.57" width="6.18" height="6.63"/><rect class="cls-3" x="423.94" y="94.2" width="6.18" height="6.63"/><rect class="cls-3" x="442.27" y="74.55" width="6.18" height="6.4"/><rect class="cls-3" x="448.45" y="80.95" width="6.18" height="19.88"/><rect class="cls-3" x="430.12" y="100.83" width="18.54" height="6.63"/><rect class="cls-1" x="500.54" y="19.89" width="6.56" height="77.89"/><rect class="cls-1" x="475.99" y="13.86" width="55.52" height="6.06"/><rect class="cls-2" x="507.03" y="19.92" width="6.34" height="83.41"/><rect class="cls-2" x="494.35" y="19.92" width="6.34" height="83.41"/><rect class="cls-2" x="475.99" y="7.79" width="55.52" height="6.06"/><rect class="cls-2" x="513.37" y="19.92" width="18.14" height="6.06"/><rect class="cls-2" x="475.99" y="19.92" width="18.36" height="6.06"/><rect class="cls-2" x="498.06" y="97.68" width="14.43" height="5.64"/><rect class="cls-2" x="469.43" y="7.79" width="6.56" height="18.19"/><rect class="cls-2" x="531.51" y="7.79" width="6.56" height="18.19"/><rect class="cls-3" x="469.43" y="1.73" width="68.64" height="6.06"/><rect class="cls-3" x="513.37" y="25.98" width="24.7" height="6.06"/><rect class="cls-3" x="469.43" y="25.98" width="24.92" height="6.06"/><rect class="cls-3" x="463.09" y="7.79" width="6.34" height="18.19"/><rect class="cls-3" x="538.06" y="7.79" width="6.34" height="18.19"/><rect class="cls-3" x="494.35" y="103.32" width="19.02" height="6.06"/><rect class="cls-3" x="488.01" y="32.04" width="6.34" height="71.28"/><rect class="cls-3" x="513.37" y="31.83" width="6.34" height="71.49"/><rect class="cls-3" x="79.74" y="230.49" width="9.98" height="7.23"/><rect class="cls-1" x="23.13" y="177" width="11.57" height="69.83"/><rect class="cls-1" x="34.7" y="161.2" width="11.57" height="15.8"/><rect class="cls-1" x="46.26" y="153.44" width="55.04" height="7.76"/><rect class="cls-1" x="34.7" y="246.83" width="11.57" height="15.8"/><rect class="cls-1" x="46.26" y="262.64" width="55.04" height="7.76"/><rect class="cls-1" x="101.3" y="254.59" width="11.57" height="15.8"/><rect class="cls-1" x="101.3" y="153.44" width="11.57" height="15.8"/><rect class="cls-1" x="112.86" y="169.25" width="11.57" height="8.74"/><rect class="cls-1" x="112.86" y="222.32" width="11.57" height="32.15"/><rect class="cls-2" x="11.57" y="169.53" width="11.57" height="84.77"/><rect class="cls-2" x="23.13" y="246.83" width="11.57" height="22.99"/><rect class="cls-2" x="34.7" y="262.64" width="11.57" height="16.09"/><rect class="cls-2" x="46.26" y="270.4" width="78.17" height="8.33"/><rect class="cls-2" x="112.86" y="254.59" width="11.57" height="15.8"/><rect class="cls-2" x="124.43" y="222.32" width="11.57" height="40.32"/><rect class="cls-2" x="23.13" y="154.02" width="11.57" height="22.99"/><rect class="cls-2" x="34.7" y="145.11" width="11.57" height="16.09"/><rect class="cls-2" x="45.86" y="145.11" width="78.56" height="8.33"/><rect class="cls-2" x="112.86" y="153.44" width="11.57" height="15.8"/><rect class="cls-2" x="124.43" y="161.2" width="11.57" height="24.65"/><rect class="cls-2" x="107.12" y="177.82" width="23.13" height="8.03"/><rect class="cls-2" x="101.3" y="169.25" width="11.57" height="16.6"/><rect class="cls-2" x="101.3" y="222.32" width="11.57" height="32.15"/><rect class="cls-2" x="89.73" y="161.2" width="11.57" height="15.8"/><rect class="cls-2" x="46.26" y="161.2" width="11.57" height="23.85"/><rect class="cls-2" x="34.7" y="177" width="11.57" height="69.83"/><rect class="cls-2" x="46.26" y="238.79" width="11.57" height="23.85"/><rect class="cls-2" x="57.83" y="161.2" width="32.3" height="8.33"/><rect class="cls-3" y="169.53" width="11.57" height="84.77"/><rect class="cls-2" x="57.83" y="254.3" width="43.47" height="8.33"/><rect class="cls-2" x="89.73" y="245.97" width="11.57" height="8.33"/><rect class="cls-3" x="46.26" y="185.05" width="11.57" height="53.74"/><rect class="cls-3" x="11.57" y="254.3" width="11.57" height="15.52"/><rect class="cls-3" x="23.13" y="269.82" width="11.57" height="8.91"/><rect class="cls-3" x="11.57" y="154.3" width="11.57" height="15.23"/><rect class="cls-3" x="23.13" y="145.11" width="11.57" height="9.2"/><rect class="cls-3" x="34.7" y="136.77" width="89.73" height="8.33"/><rect class="cls-3" x="124.43" y="145.11" width="11.57" height="16.09"/><rect class="cls-3" x="135.99" y="161.2" width="11.57" height="24.65"/><rect class="cls-3" x="135.99" y="213.83" width="11.57" height="48.81"/><rect class="cls-3" x="34.7" y="278.73" width="89.73" height="8.33"/><rect class="cls-3" x="124.43" y="262.64" width="11.57" height="16.09"/><rect class="cls-3" x="57.83" y="169.53" width="11.57" height="15.52"/><rect class="cls-3" x="57.83" y="238.79" width="11.57" height="15.52"/><rect class="cls-3" x="89.73" y="230.49" width="11.57" height="15.48"/><rect class="cls-3" x="89.73" y="177" width="11.57" height="8.84"/><rect class="cls-3" x="69.39" y="169.53" width="20.34" height="7.47"/><rect class="cls-3" x="69.39" y="245.97" width="20.34" height="8.33"/><rect class="cls-3" x="101.3" y="185.84" width="34.7" height="7.47"/><rect class="cls-3" x="79.74" y="206.32" width="56.67" height="7.47"/><rect class="cls-2" x="79.74" y="222.33" width="21.56" height="8.33"/><rect class="cls-2" x="79.74" y="213.83" width="56.11" height="8.49"/><rect class="cls-3" x="68.4" y="213.63" width="11.57" height="17.18"/><rect class="cls-1" x="183.65" y="175.15" width="11.69" height="94.41"/><rect class="cls-1" x="274.32" y="175.15" width="11.69" height="94.41"/><rect class="cls-1" x="207.02" y="157.73" width="55.61" height="8.55"/><rect class="cls-1" x="195.33" y="157.73" width="11.69" height="17.43"/><rect class="cls-1" x="262.63" y="157.73" width="11.69" height="17.84"/><rect class="cls-2" x="183.65" y="148.86" width="102.36" height="9.19"/><rect class="cls-2" x="183.65" y="158.04" width="11.69" height="17.11"/><rect class="cls-2" x="274.32" y="158.04" width="11.69" height="17.11"/><rect class="cls-2" x="286.01" y="166.6" width="11.69" height="102.97"/><rect class="cls-2" x="171.96" y="166.91" width="11.69" height="102.65"/><rect class="cls-2" x="171.96" y="269.57" width="35.06" height="9.19"/><rect class="cls-2" x="262.63" y="269.57" width="35.06" height="9.19"/><rect class="cls-2" x="195.33" y="175.15" width="11.69" height="102.65"/><rect class="cls-2" x="262.63" y="175.57" width="11.69" height="102.23"/><rect class="cls-2" x="207.02" y="166.28" width="55.61" height="9.19"/><rect class="cls-2" x="207.02" y="175.47" width="11.69" height="9.19"/><rect class="cls-2" x="251.35" y="175.47" width="11.25" height="9.19"/><rect class="cls-2" x="207.02" y="213.81" width="55.61" height="9.19"/><rect class="cls-2" x="207.02" y="221.41" width="55.61" height="9.19"/><rect class="cls-3" x="183.65" y="139.67" width="102.36" height="9.19"/><rect class="cls-3" x="171.96" y="148.86" width="11.69" height="18.06"/><rect class="cls-3" x="286.01" y="148.86" width="11.69" height="18.06"/><rect class="cls-3" x="160.27" y="166.91" width="11.69" height="111.84"/><rect class="cls-3" x="297.69" y="166.91" width="11.69" height="111.84"/><rect class="cls-3" x="171.96" y="278.75" width="35.06" height="9.19"/><rect class="cls-3" x="262.63" y="278.75" width="35.06" height="9.19"/><rect class="cls-3" x="207.02" y="230.6" width="11.69" height="48.16"/><rect class="cls-3" x="250.95" y="230.6" width="11.69" height="48.16"/><rect class="cls-3" x="218.71" y="230.6" width="35.06" height="9.19"/><rect class="cls-3" x="218.71" y="175.47" width="32.64" height="9.19"/><rect class="cls-3" x="251.35" y="184.66" width="11.28" height="29.15"/><rect class="cls-3" x="207.02" y="184.66" width="11.69" height="29.15"/><rect class="cls-3" x="218.71" y="204.62" width="32.64" height="9.19"/><rect class="cls-1" x="346.48" y="157.6" width="10.7" height="112.69"/><rect class="cls-1" x="450.12" y="157.6" width="10.7" height="112.69"/><rect class="cls-1" x="367.48" y="175.18" width="10.33" height="8.77"/><rect class="cls-1" x="357.15" y="166.4" width="10.33" height="8.77"/><rect class="cls-1" x="377.8" y="183.95" width="10.33" height="8.77"/><rect class="cls-1" x="388.13" y="192.72" width="10.33" height="8.77"/><rect class="cls-1" x="398.46" y="201.49" width="10.33" height="8.77"/><rect class="cls-1" x="408.79" y="192.72" width="10.33" height="8.77"/><rect class="cls-1" x="419.12" y="183.95" width="10.33" height="8.77"/><rect class="cls-1" x="429.45" y="175.18" width="10.33" height="8.77"/><rect class="cls-1" x="439.78" y="166.4" width="10.33" height="8.77"/><rect class="cls-2" x="336.13" y="157.63" width="10.33" height="112.51"/><rect class="cls-2" x="356.42" y="140.84" width="8.77" height="31.34" transform="translate(508.31 -207.55) rotate(90)"/><rect class="cls-2" x="460.79" y="157.63" width="10.33" height="112.51"/><rect class="cls-2" x="460.06" y="140.84" width="8.77" height="31.34" transform="translate(611.95 -311.19) rotate(90)"/><rect class="cls-2" x="357.15" y="175.18" width="10.33" height="94.97"/><rect class="cls-2" x="439.78" y="175.18" width="10.33" height="94.97"/><rect class="cls-2" x="460.06" y="262.12" width="8.77" height="31.34" transform="translate(733.23 -189.91) rotate(90)"/><rect class="cls-2" x="356.42" y="262.12" width="8.77" height="31.34" transform="translate(629.59 -86.27) rotate(90)"/><rect class="cls-2" x="372.09" y="154.95" width="8.77" height="20.66" transform="translate(532.75 -214.45) rotate(90)"/><rect class="cls-2" x="444.39" y="154.95" width="8.77" height="20.66" transform="translate(605.05 -286.75) rotate(90)"/><rect class="cls-2" x="434.06" y="163.72" width="8.77" height="20.66" transform="translate(603.5 -267.65) rotate(90)"/><rect class="cls-2" x="423.73" y="172.49" width="8.77" height="20.66" transform="translate(601.94 -248.55) rotate(90)"/><rect class="cls-2" x="382.42" y="163.72" width="8.77" height="20.66" transform="translate(551.85 -216.01) rotate(90)"/><rect class="cls-2" x="392.74" y="172.49" width="8.77" height="20.66" transform="translate(570.95 -217.57) rotate(90)"/><rect class="cls-2" x="408.24" y="176.1" width="8.77" height="30.99" transform="translate(595.22 -224.29) rotate(90)"/><rect class="cls-2" x="398.46" y="192.72" width="10.33" height="8.77"/><rect class="cls-2" x="429.45" y="183.95" width="10.33" height="8.77"/><rect class="cls-2" x="367.48" y="183.95" width="10.33" height="8.77"/><rect class="cls-2" x="382.42" y="190.03" width="8.77" height="20.66" transform="translate(578.17 -189.7) rotate(90)"/><rect class="cls-2" x="434.06" y="190.03" width="8.77" height="20.66" transform="translate(629.81 -241.34) rotate(90)"/><rect class="cls-2" x="423.73" y="198.8" width="8.77" height="20.66" transform="translate(628.25 -222.24) rotate(90)"/><rect class="cls-2" x="392.74" y="198.8" width="8.77" height="20.66" transform="translate(597.27 -191.26) rotate(90)"/><rect class="cls-2" x="408.24" y="202.41" width="8.77" height="30.99" transform="translate(621.53 -197.98) rotate(90)"/><rect class="cls-3" x="471.12" y="148.86" width="10.33" height="130.05"/><rect class="cls-3" x="325.81" y="148.86" width="10.33" height="130.05"/><rect class="cls-3" x="336.13" y="278.91" width="31.34" height="8.77"/><rect class="cls-3" x="439.78" y="278.91" width="31.34" height="8.77"/><rect class="cls-3" x="439.78" y="140.09" width="31.34" height="8.77"/><rect class="cls-3" x="336.13" y="140.09" width="31.34" height="8.77"/><rect class="cls-3" x="367.48" y="201.49" width="10.33" height="77.43"/><rect class="cls-3" x="429.45" y="201.49" width="10.33" height="77.43"/><rect class="cls-3" x="388.13" y="219.03" width="30.99" height="8.77"/><rect class="cls-3" x="377.8" y="210.26" width="10.33" height="8.77"/><rect class="cls-3" x="419.12" y="210.26" width="10.33" height="8.77"/><rect class="cls-3" x="367.48" y="148.86" width="10.33" height="8.77"/><rect class="cls-3" x="377.8" y="157.94" width="10.33" height="8.77"/><rect class="cls-3" x="388.13" y="166.71" width="10.33" height="8.77"/><rect class="cls-3" x="398.46" y="175.18" width="10.33" height="8.77"/><rect class="cls-3" x="408.79" y="166.4" width="10.33" height="8.77"/><rect class="cls-3" x="419.12" y="157.63" width="10.33" height="8.77"/><rect class="cls-3" x="429.45" y="148.86" width="10.33" height="8.77"/><rect class="cls-1" x="515.84" y="167.06" width="11.21" height="103.57"/><rect class="cls-1" x="515.84" y="159.11" width="98.15" height="8.53"/><rect class="cls-1" x="515.84" y="262.09" width="98.15" height="8.53"/><rect class="cls-2" x="504.64" y="159.11" width="11.21" height="111.51"/><rect class="cls-2" x="527.05" y="167.64" width="11.21" height="94.44"/><rect class="cls-2" x="564.04" y="103.43" width="8.53" height="109.35" transform="translate(717.42 -413.47) rotate(90)"/><rect class="cls-2" x="580.85" y="137.3" width="8.53" height="75.74" transform="translate(751.29 -413.21) rotate(90)"/><rect class="cls-2" x="580.85" y="223.21" width="8.53" height="75.74" transform="translate(837.21 -327.3) rotate(90)"/><rect class="cls-2" x="564.04" y="223.47" width="8.53" height="109.35" transform="translate(837.46 -293.42) rotate(90)"/><rect class="cls-2" x="613.99" y="150.58" width="11.21" height="25.6"/><rect class="cls-2" x="613.99" y="253.56" width="11.21" height="25.6"/><rect class="cls-2" x="575.06" y="174.67" width="8.53" height="75.74" transform="translate(782.86 -370.05) rotate(90)"/><rect class="cls-2" x="575.06" y="183.2" width="8.53" height="75.74" transform="translate(791.4 -361.52) rotate(90)"/><rect class="cls-3" x="493.43" y="150.58" width="11.21" height="128.57"/><rect class="cls-3" x="504.64" y="279.15" width="120.56" height="8.53"/><rect class="cls-3" x="504.64" y="142.05" width="120.56" height="8.53"/><rect class="cls-3" x="538.26" y="176.18" width="86.94" height="8.53"/><rect class="cls-3" x="538.26" y="245.02" width="86.94" height="8.53"/><rect class="cls-3" x="538.26" y="222.07" width="69.94" height="8.53"/><rect class="cls-3" x="538.26" y="196.48" width="69.94" height="8.53"/><rect class="cls-3" x="625.2" y="150.58" width="11.21" height="25.6"/><rect class="cls-3" x="608.2" y="205.01" width="11.21" height="17.06"/><rect class="cls-3" x="538.26" y="227.96" width="11.21" height="17.06"/><rect class="cls-3" x="538.26" y="182.94" width="11.21" height="17.06"/><rect class="cls-3" x="625.2" y="253.56" width="11.21" height="25.6"/></svg>