<svg id="Lag_1" data-name="Lag 1" xmlns="http://www.w3.org/2000/svg" viewBox="0 0 236.55 236.36"><defs><style>.cls-1{fill:#2b0f10;}.cls-2{fill:#7a391c;}.cls-3{fill:#964f2f;}.cls-4{fill:#bf7656;}</style></defs><polygon class="cls-1" points="132.01 0 132.01 13.13 131.92 13.13 131.92 13.16 105.61 13.16 105.61 0 132.01 0"/><polygon class="cls-1" points="132.01 13.13 132.01 13.2 118.81 13.2 118.81 13.16 131.92 13.16 131.92 13.13 132.01 13.13"/><rect class="cls-1" x="105.61" y="13.16" width="13.2" height="0.04"/><rect class="cls-1" x="92.41" y="13.2" width="13.2" height="13.2"/><rect class="cls-1" x="79.21" y="26.4" width="13.2" height="13.2"/><rect class="cls-1" x="66" y="39.6" width="13.21" height="13.2"/><rect class="cls-1" x="52.8" y="52.8" width="13.2" height="13.2"/><rect class="cls-1" x="39.6" y="66" width="13.2" height="13.2"/><rect class="cls-1" x="26.4" y="79.2" width="13.2" height="13.2"/><rect class="cls-1" x="13.2" y="92.4" width="13.2" height="13.21"/><rect class="cls-1" y="105.61" width="13.2" height="26.4"/><rect class="cls-1" x="13.27" y="131.89" width="13.34" height="13.2"/><rect class="cls-1" x="26.56" y="145.18" width="13.2" height="13.2"/><rect class="cls-1" x="39.91" y="158.48" width="26.19" height="13.12"/><rect class="cls-1" x="39.91" y="158.4" width="13.2" height="0.08"/><rect class="cls-1" x="52.9" y="158.4" width="13.2" height="0.08"/><rect class="cls-1" x="131.92" y="13.13" width="13.2" height="13.2"/><rect class="cls-1" x="145.21" y="26.42" width="13.21" height="13.2"/><polygon class="cls-1" points="158.62 39.62 158.62 52.81 157.92 52.81 157.92 39.61 158.42 39.61 158.42 39.62 158.62 39.62"/><polygon class="cls-1" points="171.13 39.61 171.13 66.01 158.48 66.01 158.48 65.98 158.52 65.98 158.52 65.85 158.62 65.85 158.62 39.62 158.42 39.62 158.42 39.61 171.13 39.61"/><polygon class="cls-1" points="158.62 52.81 158.62 65.85 158.52 65.85 158.52 65.98 158.48 65.98 158.48 66.01 157.92 66.01 157.92 52.81 158.62 52.81"/><rect class="cls-1" x="145.28" y="65.95" width="13.2" height="13.2"/><rect class="cls-1" x="132.08" y="79.15" width="13.2" height="13.21"/><polygon class="cls-1" points="132.08 92.36 132.08 92.55 118.91 92.55 118.91 105.56 118.88 105.56 118.88 92.36 132.08 92.36"/><polygon class="cls-1" points="105.87 105.56 105.87 105.75 105.76 105.75 105.76 105.73 105.68 105.73 105.68 105.56 105.87 105.56"/><polygon class="cls-1" points="118.88 105.75 118.88 118.76 105.68 118.76 105.68 118.72 105.87 118.72 105.87 105.75 118.88 105.75"/><polygon class="cls-1" points="105.68 118.86 105.68 131.96 92.48 131.96 92.48 118.76 92.69 118.76 92.69 118.86 105.68 118.86"/><rect class="cls-1" x="79.28" y="131.96" width="13.2" height="13.2"/><rect class="cls-1" x="66.08" y="145.16" width="13.2" height="13.2"/><rect class="cls-1" x="132.05" y="118.42" width="13.06" height="0.19"/><rect class="cls-1" x="105.47" y="131.69" width="13.2" height="13.2"/><rect class="cls-1" x="118.71" y="144.77" width="13.2" height="13.2"/><rect class="cls-1" x="131.9" y="157.83" width="13.2" height="13.2"/><rect class="cls-1" x="144.92" y="171.08" width="13.2" height="13.2"/><rect class="cls-1" x="157.89" y="184.13" width="13.21" height="13.21"/><rect class="cls-1" x="171.01" y="197.18" width="13.2" height="13.2"/><rect class="cls-1" x="184" y="210.12" width="13.2" height="13.2"/><rect class="cls-1" x="196.94" y="223.16" width="13.2" height="13.2"/><rect class="cls-1" x="171.31" y="144.78" width="0.21" height="0.22"/><rect class="cls-1" x="171.31" y="144.78" width="0.28" height="12.94"/><rect class="cls-1" x="171.59" y="157.72" width="12.9" height="0.23"/><polygon class="cls-1" points="197.51 170.92 197.51 171.01 184.31 171.01 184.31 157.81 184.49 157.81 184.49 170.91 184.56 170.91 184.56 170.92 197.51 170.92"/><rect class="cls-1" x="197.42" y="170.92" width="0.25" height="12.99"/><rect class="cls-1" x="210.41" y="183.91" width="0.22" height="0.15"/><rect class="cls-1" x="210.41" y="196.62" width="0.19" height="0.37"/><rect class="cls-1" x="210.41" y="183.91" width="0.22" height="0.15"/><rect class="cls-1" x="223.35" y="196.83" width="0.23" height="0.16"/><rect class="cls-1" x="223.35" y="196.83" width="0.23" height="13.11"/><polygon class="cls-1" points="236.55 196.83 236.55 210.03 223.56 210.03 223.56 223.16 210.27 223.16 210.27 210.24 210.6 210.24 210.6 209.96 223.35 209.96 223.35 209.94 223.58 209.94 223.58 196.71 210.66 196.71 210.66 183.91 197.67 183.91 197.67 170.92 184.56 170.92 184.56 170.91 184.49 170.91 184.49 157.72 171.59 157.72 171.59 144.78 158.34 144.78 158.34 145 158.32 145 158.32 144.6 158.45 144.6 158.45 131.7 145.33 131.7 145.33 131.64 145.12 131.64 145.12 118.61 145.11 118.61 145.11 118.42 132.05 118.42 132.05 105.56 118.91 105.56 118.91 92.55 132.08 92.55 132.08 105.41 145.25 105.41 145.25 118.44 158.32 118.44 158.32 131.5 171.52 131.5 171.52 144.75 184.53 144.75 184.53 157.81 197.51 157.81 197.51 170.86 210.63 170.86 210.63 183.79 223.61 183.79 223.61 196.83 236.55 196.83"/><polygon class="cls-1" points="210.6 209.96 210.6 210.24 210.27 210.24 210.27 223.16 210.14 223.16 210.14 209.96 210.6 209.96"/><polygon class="cls-1" points="92.23 52.86 92.23 52.92 79.3 52.92 79.3 66.15 79.17 66.15 79.17 52.86 92.23 52.86"/><rect class="cls-1" x="92.24" y="52.86" width="0.52" height="13.12"/><polygon class="cls-1" points="105.84 79.26 105.84 79.27 92.64 79.27 92.64 79.14 92.77 79.14 92.77 79.26 105.84 79.26"/><rect class="cls-1" x="105.76" y="66.07" width="0.08" height="13.13"/><polygon class="cls-1" points="118.82 79.2 118.82 92.36 105.96 92.36 105.96 79.26 92.77 79.26 92.77 79.14 92.63 79.14 92.63 66.25 79.17 66.25 79.17 66.15 79.3 66.15 79.3 52.92 92.23 52.92 92.23 52.86 92.24 52.86 92.24 65.98 105.76 65.98 105.76 79.2 118.82 79.2"/><polygon class="cls-1" points="119.03 79.13 119.03 92.44 105.76 92.44 105.76 79.26 105.96 79.26 105.96 92.36 118.82 92.36 118.82 79.2 105.76 79.2 105.76 79.13 119.03 79.13"/><rect class="cls-1" x="52.89" y="79.14" width="13.49" height="13.62"/><rect class="cls-1" x="66.25" y="92.59" width="13.2" height="13.2"/><rect class="cls-1" x="79.44" y="105.65" width="13.21" height="13.2"/><rect class="cls-2" x="13.27" y="131.89" width="13.34" height="0.12"/><polygon class="cls-2" points="79.48 105.66 79.48 118.85 79.44 118.85 79.44 105.79 66.25 105.79 66.25 105.66 79.48 105.66"/><rect class="cls-2" x="79.28" y="131.96" width="0.2" height="0.05"/><rect class="cls-2" x="26.61" y="145.18" width="13.15" height="0.12"/><polygon class="cls-2" points="79.48 131.96 79.48 145.3 66.08 145.3 66.08 145.16 79.28 145.16 79.28 131.96 79.48 131.96"/><polygon class="cls-2" points="92.69 118.72 92.69 132.1 79.49 132.1 79.49 131.96 92.48 131.96 92.48 118.85 79.49 118.85 79.49 118.72 92.69 118.72"/><polygon class="cls-2" points="52.9 79.08 52.9 92.47 52.89 92.47 52.89 79.21 52.59 79.21 52.59 79.2 39.6 79.2 39.6 79.08 52.9 79.08"/><polygon class="cls-2" points="92.48 118.85 92.48 131.96 79.28 131.96 79.28 145.16 66.08 145.16 66.08 158.36 66.18 158.36 66.18 158.48 66.1 158.48 66.1 158.4 39.91 158.4 39.91 158.48 39.79 158.48 39.79 145.3 39.76 145.3 39.76 145.18 26.61 145.18 26.61 131.89 13.27 131.89 13.27 132.01 13.2 132.01 13.2 105.61 26.4 105.61 26.4 92.44 39.6 92.44 39.6 79.2 52.59 79.2 52.59 79.21 52.89 79.21 52.89 92.76 66.25 92.76 66.25 105.79 79.44 105.79 79.44 118.85 92.48 118.85"/><rect class="cls-2" x="39.91" y="158.4" width="26.19" height="0.08"/><rect class="cls-2" x="66.08" y="145.16" width="0.1" height="13.2"/><rect class="cls-2" x="26.27" y="92.44" width="0.13" height="13.17"/><polygon class="cls-2" points="66.49 92.44 66.49 105.65 66.25 105.65 66.25 92.76 52.89 92.76 52.89 92.44 66.49 92.44"/><rect class="cls-3" x="92.24" y="52.86" width="0.52" height="13.12"/><polygon class="cls-3" points="158.52 39.63 158.52 65.98 145.28 65.98 145.28 65.95 157.92 65.95 157.92 65.85 145.33 65.85 145.33 39.63 158.52 39.63"/><polygon class="cls-3" points="145.11 26.34 145.11 39.6 132.04 39.6 132.04 26.54 105.46 26.54 105.46 26.4 92.41 26.4 92.41 39.6 92.24 39.6 92.24 26.34 145.11 26.34"/><rect class="cls-3" x="79.17" y="52.86" width="13.06" height="0.06"/><polygon class="cls-3" points="92.23 39.53 92.23 39.6 79.21 39.6 79.21 52.8 79.03 52.8 79.03 39.53 92.23 39.53"/><polygon class="cls-3" points="157.92 65.85 157.92 65.95 145.28 65.95 145.28 79.15 132.08 79.15 132.08 92.36 119.03 92.36 119.03 79.13 105.84 79.13 105.84 66.07 105.76 66.07 105.76 65.98 92.76 65.98 92.76 52.86 79.17 52.86 79.17 65.99 66 65.99 66 52.8 79.21 52.8 79.21 39.6 92.41 39.6 92.41 26.4 105.46 26.4 105.46 26.54 132.04 26.54 132.04 39.6 145.11 39.6 145.11 39.63 145.33 39.63 145.33 65.85 157.92 65.85"/><polygon class="cls-3" points="132.12 79.16 132.12 92.55 118.82 92.55 118.82 79.16 119.03 79.16 119.03 92.36 132.08 92.36 132.08 79.16 132.12 79.16"/><rect class="cls-3" x="105.54" y="13.16" width="26.39" height="13.38"/><polygon class="cls-3" points="119.03 79.13 119.03 79.2 105.76 79.2 105.76 66.07 105.84 66.07 105.84 79.13 119.03 79.13"/><polygon class="cls-3" points="145.45 65.98 145.45 79.2 132.08 79.2 132.08 79.15 145.28 79.15 145.28 65.98 145.45 65.98"/><polygon class="cls-3" points="132.04 118.72 132.04 118.78 118.79 118.78 118.79 105.75 118.88 105.75 118.88 118.72 132.04 118.72"/><rect class="cls-3" x="131.87" y="118.72" width="0.17" height="12.9"/><rect class="cls-3" x="132.05" y="118.42" width="13.06" height="0.19"/><polygon class="cls-3" points="158.45 131.7 158.45 144.6 158.32 144.6 158.32 144.57 145.33 144.57 145.33 131.7 158.45 131.7"/><polygon class="cls-3" points="158.32 144.57 158.32 144.6 145.21 144.6 145.21 131.7 145.33 131.7 145.33 144.57 158.32 144.57"/><polygon class="cls-3" points="184.31 157.95 184.31 170.91 171.31 170.91 171.31 157.98 171.24 157.98 171.24 157.9 158.34 157.9 158.34 144.78 171.31 144.78 171.31 157.72 171.59 157.72 171.59 157.95 184.31 157.95"/><rect class="cls-3" x="158.34" y="157.9" width="12.9" height="0.08"/><rect class="cls-3" x="171.31" y="144.78" width="0.28" height="12.94"/><polygon class="cls-3" points="184.49 157.72 184.49 170.92 171.24 170.92 171.24 157.98 171.31 157.98 171.31 170.91 184.31 170.91 184.31 157.95 171.59 157.95 171.59 157.72 184.49 157.72"/><polygon class="cls-3" points="223.58 196.71 223.58 196.83 223.35 196.83 223.35 209.94 210.6 209.94 210.6 197.11 210.66 197.11 210.66 196.99 210.6 196.99 210.6 196.62 197.56 196.62 197.56 184.16 197.41 184.16 197.41 184.12 184.56 184.12 184.56 171.01 197.42 171.01 197.42 183.91 210.41 183.91 210.41 184.06 210.63 184.06 210.63 183.91 210.66 183.91 210.66 196.71 223.58 196.71"/><polygon class="cls-3" points="197.67 170.92 197.67 183.91 197.42 183.91 197.42 171.01 184.56 171.01 184.56 184.12 184.42 184.12 184.42 170.92 197.67 170.92"/><rect class="cls-3" x="210.41" y="183.91" width="0.22" height="0.15"/><polygon class="cls-3" points="210.66 196.99 210.66 197.11 197.41 197.11 197.41 184.16 197.56 184.16 197.56 196.62 210.6 196.62 210.6 196.99 210.66 196.99"/><polygon class="cls-3" points="210.6 196.99 210.66 196.99 210.66 197.11 210.6 197.11 210.6 209.94 210.27 209.94 210.27 196.71 210.6 196.71 210.6 196.99"/><rect class="cls-3" x="223.35" y="196.83" width="0.23" height="13.11"/><polygon class="cls-2" points="118.67 131.69 118.67 131.7 105.65 131.7 105.65 118.86 105.68 118.86 105.68 131.69 118.67 131.69"/><polygon class="cls-2" points="132.04 118.72 132.04 131.62 131.87 131.62 131.87 118.78 118.79 118.78 118.79 118.76 105.65 118.76 105.65 118.72 132.04 118.72"/><rect class="cls-2" x="118.43" y="131.69" width="0.24" height="13.2"/><rect class="cls-2" x="118.71" y="144.77" width="13.2" height="0.23"/><rect class="cls-2" x="145.21" y="131.7" width="0.12" height="12.9"/><polygon class="cls-2" points="145.1 157.83 145.1 157.96 131.85 157.96 131.85 144.77 131.91 144.77 131.91 157.83 145.1 157.83"/><rect class="cls-2" x="145.21" y="144.57" width="13.11" height="0.03"/><rect class="cls-2" x="145.1" y="171.08" width="13.02" height="0.2"/><rect class="cls-2" x="158.34" y="157.9" width="12.9" height="0.08"/><rect class="cls-2" x="171.24" y="157.98" width="0.07" height="12.94"/><polygon class="cls-2" points="171.1 184.13 171.1 184.29 158.09 184.29 158.09 171.08 158.12 171.08 158.12 184.13 171.1 184.13"/><polygon class="cls-2" points="184.56 170.91 184.56 184.12 184.42 184.12 184.42 171.01 184.31 171.01 184.31 170.92 171.24 170.92 171.24 170.91 184.56 170.91"/><polygon class="cls-2" points="184.21 197.18 184.21 197.55 171.09 197.55 171.09 184.16 171.1 184.16 171.1 197.18 184.21 197.18"/><rect class="cls-2" x="197.41" y="184.16" width="0.15" height="12.95"/><polygon class="cls-2" points="197.2 210.12 197.2 210.24 184.13 210.24 184.13 197.18 184.21 197.18 184.21 210.12 197.2 210.12"/><polygon class="cls-2" points="210.6 196.62 210.6 209.94 210.27 209.94 210.27 197.11 197.41 197.11 197.41 196.62 210.6 196.62"/><rect class="cls-2" x="210.14" y="209.96" width="0.46" height="0.28"/><polygon class="cls-2" points="210.6 209.94 210.6 209.96 210.14 209.96 210.14 223.16 197.2 223.16 197.2 210.12 184.21 210.12 184.21 197.18 171.1 197.18 171.1 184.13 158.12 184.13 158.12 171.08 145.1 171.08 145.1 157.83 131.91 157.83 131.91 144.77 118.71 144.77 118.71 145 118.43 145 118.43 144.89 118.67 144.89 118.67 131.69 105.68 131.69 105.68 118.86 92.69 118.86 92.69 118.72 92.65 118.72 92.65 105.65 79.48 105.65 79.48 92.74 79.45 92.74 79.45 92.59 66.49 92.59 66.49 92.44 66.38 92.44 66.38 79.14 52.9 79.14 52.9 79.08 52.8 79.08 52.8 66 66 66 66 66.15 79.17 66.15 79.17 79.14 92.64 79.14 92.64 79.27 92.76 79.27 92.76 92.64 105.76 92.64 105.76 105.56 105.68 105.56 105.68 105.73 105.76 105.73 105.76 105.75 105.87 105.75 105.87 118.72 105.65 118.72 105.65 118.76 118.79 118.76 118.79 118.78 131.87 118.78 131.87 131.62 132.04 131.62 132.04 131.64 145.33 131.64 145.33 131.7 145.21 131.7 145.21 144.6 158.32 144.6 158.32 157.9 158.34 157.9 158.34 157.98 171.24 157.98 171.24 170.92 184.31 170.92 184.31 171.01 184.42 171.01 184.42 184.12 184.56 184.12 184.56 184.16 197.41 184.16 197.41 197.11 210.27 197.11 210.27 209.94 210.6 209.94"/><polygon class="cls-2" points="210.27 210.03 210.27 223.26 196.98 223.26 196.98 210.12 197.2 210.12 197.2 223.16 210.14 223.16 210.14 210.03 210.27 210.03"/><rect class="cls-4" x="132.04" y="26.28" width="13.26" height="13.32"/><rect class="cls-4" x="145.33" y="39.62" width="13.29" height="26.23"/><rect class="cls-4" x="105.46" y="13.22" width="26.58" height="13.32"/><polygon class="cls-2" points="66 66.15 66 66 52.8 66 52.8 79.08 52.9 79.08 52.9 79.14 66.38 79.14 66.38 79.21 52.59 79.21 52.59 65.99 79.17 65.99 79.17 66.15 66 66.15"/><polygon class="cls-2" points="79.45 92.59 79.45 92.74 65.66 92.74 65.66 79.14 66.38 79.14 66.38 92.44 66.49 92.44 66.49 92.59 79.45 92.59"/><polygon class="cls-2" points="92.77 79.14 92.77 92.64 92.76 92.64 92.76 79.27 92.64 79.27 92.64 79.14 92.77 79.14"/><rect class="cls-2" x="79.48" y="105.65" width="13.17" height="0.08"/><rect class="cls-2" x="92.76" y="92.44" width="0.01" height="0.2"/><rect class="cls-2" x="105.68" y="105.56" width="0.08" height="0.17"/><polygon class="cls-2" points="92.65 118.72 92.69 118.72 92.69 118.86 92.58 118.86 92.58 105.65 92.65 105.65 92.65 118.72"/><rect class="cls-2" x="105.65" y="118.72" width="0.22" height="0.04"/><polygon class="cls-2" points="105.87 105.47 105.87 105.75 105.76 105.75 105.76 105.73 105.68 105.73 105.68 105.56 105.76 105.56 105.76 105.47 105.87 105.47"/><rect class="cls-3" x="66" y="52.77" width="13.21" height="0.03"/><polygon class="cls-3" points="79.3 52.86 79.3 66.15 66 66.15 66 65.99 79.17 65.99 79.17 52.86 79.3 52.86"/><rect class="cls-3" x="79.17" y="66.25" width="13.46" height="12.89"/><polygon class="cls-3" points="145.11 118.61 145.11 131.62 132.04 131.62 132.04 118.72 118.88 118.72 118.88 105.75 105.87 105.75 105.87 105.47 105.76 105.47 105.76 92.64 92.77 92.64 92.77 79.27 105.76 79.27 105.76 92.44 118.82 92.44 118.82 92.55 118.88 92.55 118.88 105.58 132.04 105.58 132.04 118.42 132.05 118.42 132.05 118.61 145.11 118.61"/><rect class="cls-3" x="105.76" y="105.47" width="0.11" height="0.28"/><polygon class="cls-3" points="118.91 92.36 118.91 105.58 118.88 105.58 118.88 92.55 118.82 92.55 118.82 92.44 105.76 92.44 105.76 92.36 118.91 92.36"/><polygon class="cls-3" points="105.96 79.26 105.96 92.44 105.76 92.44 105.76 79.27 92.77 79.27 92.77 92.64 92.76 92.64 92.76 79.26 105.96 79.26"/></svg>