<svg id="Lag_1" data-name="Lag 1" xmlns="http://www.w3.org/2000/svg" viewBox="0 0 374.87 232.34"><defs><style>.cls-1{fill:#2b0f10;}.cls-2{fill:#fdc63e;}.cls-3{fill:#ef7807;}.cls-4{fill:#fef7c1;}</style></defs><polygon class="cls-1" points="73.23 14.84 73.23 29.02 58.62 29.02 58.62 28.88 72.87 28.88 72.87 14.84 73.23 14.84"/><rect class="cls-1" x="43.91" y="14.42" width="14.61" height="14.46"/><polygon class="cls-1" points="73.23 14.42 73.23 14.84 72.87 14.84 72.87 28.88 58.62 28.88 58.62 14.42 73.23 14.42"/><rect class="cls-1" x="43.91" y="28.88" width="14.61" height="0.14"/><rect class="cls-1" x="29.49" y="28.91" width="14.61" height="14.61"/><polygon class="cls-1" points="29.49 43.23 29.49 43.25 29.08 43.25 29.08 71.59 29.01 71.59 29.01 72 15.05 72 15.05 57.5 15.18 57.5 15.18 43.23 29.49 43.23"/><polygon class="cls-1" points="29.79 43.23 29.79 57.83 29.08 57.83 29.08 43.25 29.49 43.25 29.49 43.23 29.79 43.23"/><polygon class="cls-1" points="29.65 57.5 29.65 72.1 15.05 72.1 15.05 72 29.01 72 29.01 71.59 29.08 71.59 29.08 57.5 29.65 57.5"/><rect class="cls-1" x="73.47" width="88.14" height="14.61"/><rect class="cls-1" x="161.78" y="14.23" width="29.19" height="14.61"/><rect class="cls-1" x="190.78" y="28.72" width="14.61" height="14.61"/><polygon class="cls-1" points="205.39 43.04 205.39 43.33 205.23 43.33 205.23 57.64 205.09 57.64 205.09 43.04 205.39 43.04"/><polygon class="cls-1" points="219.83 57.31 219.83 71.91 205.23 71.91 205.23 43.33 205.39 43.33 205.39 43.04 219.7 43.04 219.7 57.31 219.83 57.31"/><polygon class="cls-1" points="14.61 71.63 14.61 146.87 14.6 146.87 14.6 159.77 0 159.77 0 71.63 14.61 71.63"/><polygon class="cls-1" points="234.54 71.63 234.54 159.77 219.96 159.77 219.96 159.76 219.93 159.76 219.93 145.16 219.94 145.16 219.94 71.63 234.54 71.63"/><rect class="cls-1" x="219.93" y="159.76" width="0.03" height="0.01"/><rect class="cls-1" x="43.45" y="202.97" width="29.42" height="14.61"/><rect class="cls-1" x="29.03" y="188.48" width="14.61" height="14.61"/><polygon class="cls-1" points="29.33 174.17 29.33 188.77 29.03 188.77 29.03 188.48 29.08 188.48 29.08 174.17 29.33 174.17"/><polygon class="cls-1" points="29.08 159.91 29.08 188.48 29.03 188.48 29.03 188.77 14.72 188.77 14.72 174.5 14.59 174.5 14.59 159.9 14.71 159.9 14.71 159.91 29.08 159.91"/><polygon class="cls-1" points="29.19 159.9 29.19 174.5 29.08 174.5 29.08 159.91 14.71 159.91 14.71 159.9 29.19 159.9"/><rect class="cls-1" x="161.78" y="202.83" width="14.6" height="14.61"/><polygon class="cls-1" points="191.09 202.95 191.09 217.44 176.48 217.44 176.48 202.83 190.9 202.83 190.9 202.95 191.09 202.95"/><rect class="cls-1" x="190.9" y="202.83" width="0.19" height="0.12"/><rect class="cls-1" x="190.9" y="188.34" width="14.61" height="14.61"/><polygon class="cls-1" points="219.96 159.77 219.96 174.36 219.82 174.36 219.82 188.63 205.51 188.63 205.51 188.34 205.23 188.34 205.23 174.03 205.35 174.03 205.35 159.91 219.6 159.91 219.6 159.76 219.93 159.76 219.93 159.77 219.96 159.77"/><polygon class="cls-1" points="205.51 188.34 205.51 188.63 205.21 188.63 205.21 174.03 205.23 174.03 205.23 188.34 205.51 188.34"/><rect class="cls-1" x="205.35" y="159.76" width="14.25" height="0.15"/><rect class="cls-1" x="219.93" y="159.76" width="0.03" height="0.01"/><rect class="cls-1" x="81.95" y="226.56" width="88.87" height="14.61" transform="translate(243.69 458.89) rotate(-180)"/><polygon class="cls-2" points="161.78 72 161.78 159.91 146.74 159.91 146.74 157.45 87.91 157.45 87.91 159.91 72.87 159.91 72.87 72 87.91 72 87.91 57.67 146.74 57.67 146.74 72 161.78 72"/><path class="cls-2" d="M82,23.67V66.61h.49V52.08h88.35V66.61h.07V23.67Zm88.64,28.27H82.45V37.71h88.14Z" transform="translate(-9.08 -8.83)"/><polygon class="cls-2" points="161.78 174.4 161.78 217.73 72.87 217.73 72.87 174.12 72.99 174.12 72.99 188.65 73.37 188.65 73.37 202.69 161.51 202.69 161.51 189 161.25 189 161.25 188.65 73.37 188.65 73.37 188.43 149.41 188.43 149.41 188.61 161.25 188.61 161.25 174.4 161.78 174.4"/><polygon class="cls-2" points="43.64 188.48 43.64 188.65 29.08 188.65 29.08 159.9 29.19 159.9 29.19 174.17 29.33 174.17 29.33 188.48 43.64 188.48"/><rect class="cls-2" x="43.72" y="159.82" width="14.6" height="14.61"/><rect class="cls-2" x="58.38" y="174.12" width="14.61" height="14.53"/><polygon class="cls-2" points="44.1 43.25 44.1 43.52 29.79 43.52 29.79 57.83 29.65 57.83 29.65 71.59 43.61 71.59 43.61 72 29.65 72 29.65 72.1 29.08 72.1 29.08 43.25 44.1 43.25"/><rect class="cls-2" x="44.05" y="57.21" width="14.61" height="14.61"/><rect class="cls-2" x="58.76" y="43.25" width="14.6" height="14.53"/><polygon class="cls-2" points="161.78 72 161.78 159.91 146.74 159.91 146.74 157.45 87.91 157.45 87.91 159.91 72.87 159.91 72.87 72 87.91 72 87.91 57.67 146.74 57.67 146.74 72 161.78 72"/><polygon class="cls-2" points="205.23 72 205.23 188.65 73.37 188.65 73.37 188.43 149.41 188.43 149.41 188.61 161.25 188.61 161.25 174.4 175.77 174.4 175.77 159.89 190.37 159.89 190.37 159.91 190.45 159.91 190.45 72.3 176.01 72.3 176.01 57.78 161.71 57.78 161.71 43.25 176.31 43.25 176.31 57.7 190.61 57.7 190.61 71.92 205.06 71.92 205.06 72 190.86 72 190.86 159.91 205.06 159.91 205.06 72 205.23 72"/><polygon class="cls-2" points="205.23 43.25 205.23 57.64 205.09 57.64 205.09 43.33 190.78 43.33 190.78 43.25 205.23 43.25"/><polygon class="cls-2" points="29.08 159.9 29.19 159.9 29.19 159.91 14.71 159.91 14.71 72 29.65 72 29.65 72.1 29.08 72.1 29.08 159.9"/><rect class="cls-2" x="43.72" y="159.82" width="14.6" height="0.09"/><polygon class="cls-2" points="161.78 72 161.78 159.91 146.74 159.91 146.74 157.45 87.91 157.45 87.91 159.91 72.87 159.91 72.87 72 161.78 72"/><rect class="cls-2" x="175.77" y="159.89" width="14.6" height="0.02"/><polygon class="cls-2" points="190.86 72 190.86 159.91 190.45 159.91 190.45 72.3 176.01 72.3 176.01 72 190.86 72"/><rect class="cls-2" x="205.06" y="72" width="14.54" height="87.91"/><path class="cls-2" d="M170.59,37.71V51.94H82.45V37.71H52.87V211.52H82.45v-14h87.88v.35h.26v13.69h29.35V37.71ZM155.82,181.23H97V166.28h58.83Z" transform="translate(-9.08 -8.83)"/><rect class="cls-3" x="73.37" y="28.5" width="74.27" height="0.38"/><rect class="cls-3" x="73.37" y="28.88" width="88.14" height="14.23"/><rect class="cls-3" x="146.91" y="28.5" width="14.6" height="0.38"/><polygon class="cls-4" points="161.51 189 161.51 202.69 73.37 202.69 73.37 188.65 161.25 188.65 161.25 189 161.51 189"/><rect class="cls-4" x="73.37" y="188.43" width="76.04" height="0.22"/><rect class="cls-4" x="73.37" y="202.69" width="76.04" height="0.7"/><rect class="cls-4" x="146.91" y="202.69" width="14.6" height="0.52"/><polygon class="cls-4" points="161.51 188.61 161.51 189 161.25 189 161.25 188.65 146.91 188.65 146.91 188.61 161.51 188.61"/><polygon class="cls-3" points="43.61 72 43.61 159.73 29.08 159.73 29.08 72.1 29.65 72.1 29.65 72 43.61 72"/><polygon class="cls-3" points="43.61 71.59 43.61 72 29.65 72 29.65 72.1 29.08 72.1 29.08 145.86 29.01 145.86 29.01 71.59 43.61 71.59"/><rect class="cls-3" x="29.01" y="145.12" width="0.07" height="14.61"/><rect class="cls-4" x="190.86" y="72" width="14.2" height="87.91"/><polygon class="cls-4" points="205.06 71.92 205.06 72 190.86 72 190.86 146.19 190.45 146.19 190.45 71.92 205.06 71.92"/><polygon class="cls-4" points="205.06 159.91 205.06 160.06 190.45 160.06 190.45 145.45 190.86 145.45 190.86 159.91 205.06 159.91"/><rect class="cls-3" x="44.05" y="57.21" width="14.61" height="14.61"/><rect class="cls-3" x="58.76" y="43.17" width="14.6" height="14.61"/><rect class="cls-3" x="161.71" y="43.17" width="14.6" height="14.61"/><rect class="cls-3" x="43.72" y="159.82" width="14.6" height="14.61"/><polygon class="cls-2" points="205.23 57.64 205.23 72 205.06 72 205.06 71.92 190.61 71.92 190.61 57.7 176.31 57.7 176.31 43.17 161.78 43.17 161.78 28.84 190.78 28.84 190.78 43.33 205.09 43.33 205.09 57.64 205.23 57.64"/><rect class="cls-4" x="176.01" y="57.7" width="14.6" height="14.6"/><rect class="cls-4" x="58.38" y="174.12" width="14.61" height="14.6"/><rect class="cls-4" x="175.77" y="159.89" width="14.6" height="14.6"/><rect class="cls-4" x="161.25" y="174.4" width="14.61" height="14.6"/><rect class="cls-3" x="120.67" y="116.54" width="85.1" height="14.61" transform="translate(30.29 278.23) rotate(-90)"/><rect class="cls-4" x="47.23" y="116.64" width="84.9" height="14.61" transform="translate(-43.34 204.8) rotate(-90)"/><rect class="cls-4" x="87.91" y="57.67" width="58.83" height="14.95"/><path class="cls-2" d="M185.09,81.13V66.61h-14.3V52.08H82.44V66.61H67.84V52.08H53.18v.27H38.87V66.66h-.14V80.42h14v88.14H38.16v.17h.11V183h.14v14.31H52.72V211.8H82V197.55H67.46V183H82.07v14.53h.38v-.22h76v.18h11.84V183.23h14.52V168.72h14.6v0h.08V81.13ZM52.8,168.65H67.4v14.61H52.8Zm14.94-88H53.13V66H67.74Zm103.12,88.09h-15v12.49H97V168.74H82V80.83H97V66.5h58.83V80.83h15Z" transform="translate(-9.08 -8.83)"/><rect class="cls-3" x="87.91" y="157.45" width="58.83" height="14.95"/><rect class="cls-1" x="281.95" y="67.72" width="20.56" height="20.56" transform="translate(575.39 147.17) rotate(-180)"/><rect class="cls-1" x="302.66" y="87.01" width="20.56" height="20.56" transform="translate(616.8 185.76) rotate(-180)"/><rect class="cls-1" x="322.89" y="107.25" width="20.56" height="20.56" transform="translate(657.27 226.23) rotate(-180)"/><rect class="cls-1" x="343.01" y="127.2" width="20.56" height="20.56" transform="translate(697.49 266.14) rotate(-180)"/><rect class="cls-1" x="362.92" y="147.68" width="20.56" height="20.56" transform="translate(737.31 307.1) rotate(-180)"/><rect class="cls-1" x="343.15" y="88.39" width="20.56" height="20.56" transform="translate(697.78 188.51) rotate(-180)"/><rect class="cls-1" x="363.39" y="68.15" width="20.56" height="20.56" transform="translate(738.26 148.04) rotate(-180)"/><rect class="cls-1" x="302.73" y="127.64" width="20.56" height="20.56" transform="translate(616.94 267.02) rotate(-180)"/><rect class="cls-1" x="282.96" y="147.88" width="20.56" height="20.56" transform="translate(577.41 307.49) rotate(-180)"/></svg>